<?xml version="1.0" encoding="utf-8"?>
<!-- Generator: Adobe Illustrator 22.1.0, SVG Export Plug-In . SVG Version: 6.00 Build 0)  -->
<svg version="1.1" id="Layer_1" xmlns="http://www.w3.org/2000/svg" xmlns:xlink="http://www.w3.org/1999/xlink" x="0px" y="0px"
	 viewBox="0 0 389 389" style="enable-background:new 0 0 389 389;" xml:space="preserve">
<style type="text/css">
	.st0{fill:none;stroke:#020203;stroke-width:2.8614;stroke-miterlimit:10;}
	.st1{fill:none;stroke:#020203;stroke-width:1.6914;stroke-miterlimit:10;}
	.st2{fill:#020203;}
	.st3{font-family:'Raleway-Light';}
	.st4{font-size:35.2897px;}
	.st5{letter-spacing:4.8;}
	.st6{fill:none;stroke:#020203;stroke-width:7.6303;stroke-miterlimit:10;}
	.st7{font-family:'Didot-Bold';}
	.st8{font-size:33.7255px;}
	.st9{fill:#030304;}
	.st10{font-family:'Futura-Medium';}
	.st11{font-size:20.9799px;}
	.st12{font-size:20.9831px;}
	.st13{font-size:21.0302px;}
	.st14{font-size:21.0501px;}
	.st15{font-size:20.9516px;}
</style>
<circle class="st0" cx="196.8" cy="194.6" r="184"/>
<g>
	<rect x="161.9" y="180.1" class="st1" width="129.1" height="7"/>
	<rect x="157.4" y="184.5" class="st1" width="4.5" height="33"/>
	<path class="st1" d="M157.4,184.5h-60c0,0,20.3,39.7,60,33V184.5z"/>
	<path class="st1" d="M161.9,217.5c0,0,16.4-2.8,17.8,7.9c1.4,10.7-3.1,17.8-27.4,24.1l-8,12.8"/>
	<rect x="144.3" y="262.3" class="st1" width="27.9" height="10.4"/>
	<rect x="228.3" y="262.3" class="st1" width="27.8" height="10.4"/>
	<path class="st1" d="M172.2,262.3c0,0,27.8-38.3,56.1,0v10.1c0,0.1-0.1,0.2-0.2,0.1c-2.3-1.5-23.6-14-55.6,0c-0.1,0-0.2,0-0.2-0.1
		c0,0,0,0,0-0.1L172.2,262.3z"/>
	<path class="st1" d="M176.2,238.4c0,0-1.1,16.7-32,23.9"/>
	<path class="st1" d="M228.3,238.1c0,0,1.8,18.3,27.7,24.1c0.1,0,0.2-0.1,0.2-0.2c0,0,0-0.1,0-0.1l-4.1-11.3l-13.9-5.3
		c-24.2-11.5-7.9-29.7-7.9-29.7c16.7-16.2,52-16.2,52-16.2c7.7-0.2,5.5-12.1,5.5-12.1"/>
	<path class="st1" d="M97.3,184.5c0,0,15.7,6.4,33.4,6.4c0,0,18-3.2,26.6-6.4"/>
</g>
<g>
	<path class="st2" d="M131.4,338.6c0.3-0.6,0.8-1.1,1.5-1.3c1.4-0.5,3,0.2,3.5,1.6c0.3,0.6,0.3,1.4,0,2c-0.3,0.7-0.8,1.2-1.5,1.4
		c-0.7,0.2-1.4,0.2-2.1-0.1c-0.7-0.3-1.2-0.8-1.5-1.5C131.1,340,131.1,339.2,131.4,338.6z"/>
	<path class="st2" d="M199.1,353.6c0-0.7,0.3-1.4,0.8-1.9c1.1-1.1,2.8-1.1,3.9-0.1c1.1,1,1.1,2.6,0.2,3.6c0,0-0.1,0.1-0.1,0.1
		c-1.1,1-2.8,1.1-3.9,0.1C199.3,355,199,354.3,199.1,353.6z"/>
	<path class="st2" d="M266.5,338.1c-0.3-0.6-0.4-1.4-0.1-2c0.5-1.4,2-2.2,3.5-1.7c0.7,0.2,1.2,0.7,1.6,1.3c0.3,0.6,0.4,1.4,0.1,2
		c-0.5,1.4-2,2.2-3.5,1.7C267.4,339.2,266.8,338.7,266.5,338.1z"/>
	<path class="st2" d="M320.8,294.8c-0.5-0.4-0.9-1.1-1-1.7c-0.1-1.5,0.9-2.8,2.3-3.1c1.4-0.2,2.7,0.7,3,2.1c0,0.1,0,0.1,0,0.2
		c0.1,0.7-0.1,1.4-0.6,2c-0.4,0.6-1.1,1-1.8,1.1C322.1,295.4,321.4,295.2,320.8,294.8z"/>
	<path class="st2" d="M351.1,232.6c-0.7-0.1-1.3-0.6-1.6-1.2c-0.8-1.3-0.4-3,0.8-3.8c0.6-0.4,1.3-0.6,2-0.4c0.7,0.1,1.3,0.6,1.7,1.2
		c0.4,0.6,0.5,1.3,0.3,2.1c-0.1,0.7-0.6,1.3-1.2,1.7C352.5,232.6,351.8,232.8,351.1,232.6z"/>
	<path class="st2" d="M351.5,163.3c-0.7,0.2-1.4,0-2-0.4c-1.3-0.8-1.7-2.5-0.9-3.8c0.3-0.6,0.9-1.1,1.6-1.2c0.7-0.2,1.4,0,2,0.4
		c0.6,0.4,1,1,1.2,1.7c0.2,0.7,0.1,1.5-0.3,2.1C352.8,162.7,352.2,163.2,351.5,163.3z"/>
	<path class="st2" d="M322.1,100.6c-0.5,0.4-1.2,0.6-1.9,0.5c-1.5-0.2-2.6-1.5-2.4-3c0.1-1.4,1.3-2.5,2.7-2.4c0,0,0.1,0,0.1,0
		c1.5,0.2,2.5,1.5,2.4,3C323,99.5,322.6,100.2,322.1,100.6z"/>
	<path class="st2" d="M268.4,56.7c-0.3,0.6-0.8,1.1-1.5,1.3c-1.4,0.5-3-0.3-3.5-1.7c-0.3-0.7-0.2-1.4,0.1-2c0.3-0.6,0.9-1.1,1.5-1.3
		c0.7-0.2,1.4-0.2,2.1,0.2c0.7,0.3,1.2,0.8,1.4,1.5C268.8,55.4,268.8,56.1,268.4,56.7z"/>
	<path class="st2" d="M201.2,40.3c0,0.7-0.3,1.4-0.8,1.8c-1.1,1-2.8,1-3.9,0c-0.5-0.5-0.8-1.2-0.8-1.9c0-0.7,0.3-1.4,0.8-1.9
		c0.5-0.5,1.2-0.8,1.9-0.8c0.7,0,1.4,0.3,1.9,0.8C200.9,38.8,201.2,39.5,201.2,40.3z"/>
	<path class="st2" d="M133.3,54.4c0.3,0.6,0.3,1.4,0.1,2c-0.2,0.7-0.7,1.2-1.4,1.5c-0.6,0.3-1.4,0.4-2.1,0.1
		c-1.3-0.4-2.1-1.9-1.7-3.2c0,0,0-0.1,0-0.1c0.2-0.7,0.8-1.2,1.4-1.5c0.6-0.3,1.4-0.4,2.1-0.2C132.5,53.3,133.1,53.8,133.3,54.4z"/>
	<path class="st2" d="M78.2,96.6c0.6,0.4,0.9,1.1,1,1.8c0.1,0.7-0.1,1.4-0.6,2c-0.4,0.6-1.1,0.9-1.8,1c-0.7,0.1-1.4-0.1-1.9-0.5
		c-0.6-0.4-0.9-1.1-1-1.8c-0.1-0.7,0.2-1.4,0.6-2c0.4-0.6,1.1-0.9,1.8-1C77,95.9,77.7,96.1,78.2,96.6z"/>
	<path class="st2" d="M46.6,158.1c0.7,0.2,1.3,0.6,1.6,1.2c0.8,1.3,0.4,2.9-0.9,3.8c-1.2,0.8-2.8,0.5-3.5-0.7c0,0-0.1-0.1-0.1-0.1
		c-0.8-1.3-0.4-3,0.9-3.8C45.2,158,46,157.9,46.6,158.1z"/>
	<path class="st2" d="M44.8,227.4c0.7-0.2,1.4,0,2,0.4c1.3,0.8,1.6,2.5,0.8,3.8c-0.7,1.2-2.3,1.6-3.5,0.9c0,0-0.1-0.1-0.1-0.1
		c-0.6-0.4-1-1-1.2-1.7c-0.2-0.7,0-1.5,0.3-2.1C43.4,227.9,44.1,227.5,44.8,227.4z"/>
	<path class="st2" d="M72.9,290.7c0.5-0.4,1.2-0.6,1.9-0.5c0.7,0.1,1.4,0.5,1.8,1c0.5,0.6,0.7,1.3,0.6,2c-0.1,1.4-1.4,2.4-2.8,2.3
		c-0.1,0-0.1,0-0.2,0c-0.7-0.1-1.4-0.5-1.8-1.1c-0.5-0.6-0.7-1.3-0.6-2C71.9,291.7,72.3,291.1,72.9,290.7z"/>
</g>
<text transform="matrix(1.04 0 0 1 123.2756 124.1178)" class="st2 st3 st4 st5">KVINDE</text>
<circle class="st6" cx="196.8" cy="194.6" r="172.7"/>
<text transform="matrix(0.9615 0 0 1 121.6662 155.4195)" class="st2 st7 st8">SMEDIEN</text>
<text transform="matrix(0.9001 0.5301 -0.5101 0.8601 120.2168 313.2326)" class="st9 st10 st11">S</text>
<text transform="matrix(0.9409 0.443 -0.4259 0.9048 134.4057 321.2321)" class="st9 st10 st12">I</text>
<text transform="matrix(0.9815 0.3439 -0.3307 0.9437 143.5337 325.582)" class="st9 st10 st12">D</text>
<text transform="matrix(1.0177 0.2195 -0.2095 0.9778 162.2567 331.7713)" class="st9 st10 st13">E</text>
<text transform="matrix(1.0367 7.974520e-02 -7.974523e-02 0.9968 178.2096 335.1576)" class="st9 st10 st14">N</text>
<text transform="matrix(1.0315 -0.1302 0.1302 0.9915 210.6874 336.0227)" class="st9 st10 st15">1</text>
<text transform="matrix(1.0116 -0.2414 0.2321 0.9727 225.9581 333.966)" class="st9 st10 st12">9</text>
<text transform="matrix(0.9752 -0.3613 0.3474 0.9377 242.7538 329.7198)" class="st9 st10 st12">9</text>
<text transform="matrix(0.9268 -0.4718 0.4537 0.8912 258.2812 323.7699)" class="st9 st10 st12">7</text>
</svg>
