<svg xmlns="http://www.w3.org/2000/svg" viewBox="0 0 388.8824 388.8824">
  <title>Asset 10</title>
  <g id="Layer_2" data-name="Layer 2">
    <g id="Layer_4" data-name="Layer 4">
      <circle cx="194.4412" cy="194.4412" r="192.9412" fill="none" stroke="#020202" stroke-miterlimit="10" stroke-width="3"/>
      <circle cx="194.4412" cy="194.4412" r="181.0373" fill="none" stroke="#020202" stroke-miterlimit="10" stroke-width="8"/>
      <g>
        <path d="M118.9843,105.5732v-26.27h1.9624V95.25l15.9307-15.9468h2.27L127.7963,90.81l11.9287,14.7631h-2.2319L126.5263,91.957l-5.58,5.5132v8.103Z" fill="#050505" stroke="#050505" stroke-width="0.25"/>
        <path d="M147.7289,79.3032l10.39,23.9019,10.3892-23.9019h2.0781l-11.544,26.27h-1.8086l-11.5825-26.27Z" fill="#050505" stroke="#050505" stroke-width="0.25"/>
        <path d="M180.0131,105.5732v-26.27h1.9624v26.27Z" fill="#050505" stroke="#050505" stroke-width="0.25"/>
        <path d="M196.3281,82.8555v22.7177h-1.9624v-26.27h1.5009l19.1626,23.125V79.3032h1.9629v26.27h-1.8086Z" fill="#050505" stroke="#050505" stroke-width="0.25"/>
        <path d="M229.3437,105.5732v-26.27h9.0815a14.4609,14.4609,0,0,1,5.6763,1.0361,11.413,11.413,0,0,1,4.0586,2.8121,11.6253,11.6253,0,0,1,2.4238,4.1626,15.7479,15.7479,0,0,1,.8086,5.0874,15.3941,15.3941,0,0,1-.9043,5.42,11.344,11.344,0,0,1-6.6953,6.8081,14.5909,14.5909,0,0,1-5.3677.9433ZM249.43,92.4014a13.79,13.79,0,0,0-.73-4.57,10.22,10.22,0,0,0-2.1348-3.6074,9.7439,9.7439,0,0,0-3.4453-2.3677,12.1044,12.1044,0,0,0-4.6939-.851h-7.1191v22.8657h7.1191a12.1371,12.1371,0,0,0,4.7525-.8692,9.483,9.483,0,0,0,3.4433-2.4238,10.4778,10.4778,0,0,0,2.0977-3.6445A13.9705,13.9705,0,0,0,249.43,92.4014Z" fill="#050505" stroke="#050505" stroke-width="0.25"/>
        <path d="M280.2138,103.8711v1.7021h-18.2v-26.27h17.8545v1.7022H263.9755V91.3281h13.8916V92.956H263.9755v10.9151Z" fill="#050505" stroke="#050505" stroke-width="0.25"/>
      </g>
      <g>
        <path d="M116.3652,130.5449q.0681.4248.2383,1.1143a10.8674,10.8674,0,0,0,.4926,1.4848,12.1224,12.1224,0,0,0,.8164,1.6265,7.6494,7.6494,0,0,0,1.2066,1.5381,7.0683,7.0683,0,0,0,1.5132,1.2378,6.3528,6.3528,0,0,0,1.394.6186,4.99,4.99,0,0,0,1.2578.2124q.5948.0183,1.105.0176a6.5535,6.5535,0,0,0,2.958-.5835,5.1761,5.1761,0,0,0,2.7544-3.2178,6.0036,6.0036,0,0,0,.272-1.644,3.6733,3.6733,0,0,0-.5952-2.1572,4.8333,4.8333,0,0,0-1.5811-1.4141,11.1353,11.1353,0,0,0-2.2436-.9551q-1.2583-.3882-2.5845-.7954a24.1879,24.1879,0,0,1-2.584-.9546,8.5264,8.5264,0,0,1-2.2437-1.4145,6.4178,6.4178,0,0,1-1.581-2.1392,7.5041,7.5041,0,0,1-.5952-3.1826,6.3544,6.3544,0,0,1,.6123-2.7227,7.4174,7.4174,0,0,1,1.7-2.3159,8.6551,8.6551,0,0,1,5.8823-2.2456,8.1817,8.1817,0,0,1,1.9717.2124q.85.2116,1.4961.4419t1.1391.4419a2.2986,2.2986,0,0,0,.9009.2124.893.893,0,0,0,.6289-.1592,1.9158,1.9158,0,0,0,.3233-.5835h.5439v6.7183h-.4419q-.4078-1.237-.8672-2.44a9.2068,9.2068,0,0,0-1.1728-2.1744,5.52,5.52,0,0,0-1.8023-1.5737,5.6523,5.6523,0,0,0-2.7539-.6011,6.801,6.801,0,0,0-2.3969.3892,5.498,5.498,0,0,0-1.751,1.0254,4.5147,4.5147,0,0,0-1.0879,1.4141,3.6282,3.6282,0,0,0-.374,1.5913,3.2474,3.2474,0,0,0,.6289,2.0507,5.4844,5.4844,0,0,0,1.6489,1.397,12.3943,12.3943,0,0,0,2.3291,1.0078q1.3081.4241,2.686.8838t2.6861,1.0078a9.1343,9.1343,0,0,1,2.3286,1.397,6.6492,6.6492,0,0,1,1.6494,2.0508,6.3592,6.3592,0,0,1,.6289,2.97,8.1243,8.1243,0,0,1-.68,3.2886,8.2182,8.2182,0,0,1-1.9209,2.7226,9.3645,9.3645,0,0,1-2.958,1.8565,10.1865,10.1865,0,0,1-3.8252.6894,10.3936,10.3936,0,0,1-2.0908-.2124q-1.0379-.2116-1.938-.4419t-1.5981-.4419a3.9879,3.9879,0,0,0-1.0366-.2124,1.1228,1.1228,0,0,0-.68.1592,1.4244,1.4244,0,0,0-.374.6543h-.544v-7.85Z" fill="#020202"/>
        <path d="M145.7753,113.2187l5.8819,17.6094h.0683l5.9839-17.6094h8.5v.4952h-3.1279V137.9h3.1279v.4951H155.0571V137.9h3.0942v-24.186h-.0679l-8.3642,24.6811h-.544l-8.3979-24.6811h-.0679V137.9h3.1279v.4951h-6.8V137.9h3.1284v-24.186h-3.1284v-.4952Z" fill="#020202"/>
        <path d="M189.0908,113.2187v6.0464h-.4419a12.8555,12.8555,0,0,0-.5782-1.5381,7.686,7.686,0,0,0-1.1386-1.8208,6.6988,6.6988,0,0,0-1.8872-1.5385,5.6572,5.6572,0,0,0-2.8218-.6538h-5.4063V124.64h1.9043a5.3993,5.3993,0,0,0,2.125-.3716,3.8172,3.8172,0,0,0,1.4449-1.0605,5.822,5.822,0,0,0,.9521-1.6621,13.2447,13.2447,0,0,0,.6118-2.1743h.4419v10.9966h-.4419q-.238-1.0247-.561-1.98a5.974,5.974,0,0,0-.8672-1.68,4.0178,4.0178,0,0,0-1.3428-1.1489,4.202,4.202,0,0,0-1.9887-.4244h-2.2784V137.9h5.5762a6.8112,6.8112,0,0,0,5.0488-2.0859,8.7819,8.7819,0,0,0,1.6153-2.3164,12.9385,12.9385,0,0,0,.9858-2.8462h.4419v7.7436H168.7587V137.9h3.1285v-24.186h-3.1285v-.4952Z" fill="#020202"/>
        <path d="M193.2724,113.7139v-.4952H196.4q1.7345,0,3.4683-.0532t3.4678-.0527a26.0919,26.0919,0,0,1,3.23.2119,17.8319,17.8319,0,0,1,3.3662.76,15.0019,15.0019,0,0,1,3.1621,1.4672,10.5685,10.5685,0,0,1,2.6518,2.334,10.9882,10.9882,0,0,1,1.836,3.3594,15.5179,15.5179,0,0,1,0,9.0874,11.1928,11.1928,0,0,1-1.8189,3.3594,10.538,10.538,0,0,1-2.6011,2.3335,14.819,14.819,0,0,1-3.0429,1.4673,16.2636,16.2636,0,0,1-3.128.76,21.2181,21.2181,0,0,1-2.873.2124q-1.938,0-3.8589-.0356T196.4,138.395h-3.1279V137.9H196.4v-24.186Zm9.86,24.292a11.46,11.46,0,0,0,3.7739-.5479,7.93,7.93,0,0,0,2.6347-1.4853,7.369,7.369,0,0,0,1.7-2.1392,11.1066,11.1066,0,0,0,.9517-2.5283,16.5477,16.5477,0,0,0,.4253-2.6519q.1019-1.3257.102-2.4927a35.8875,35.8875,0,0,0-.34-5.1806,10.4458,10.4458,0,0,0-1.3428-3.96,6.6031,6.6031,0,0,0-2.8222-2.5283,10.9965,10.9965,0,0,0-4.7769-.8843q-.68,0-1.2241.0181a5.4043,5.4043,0,0,0-.8838.0884V137.9A16.9327,16.9327,0,0,0,203.1328,138.0059Z" fill="#020202"/>
        <path d="M232.5419,113.2187v.4952h-3.1284V137.9h3.1284v.4951h-11.186V137.9h3.1279v-24.186h-3.1279v-.4952Z" fill="#020202"/>
        <path d="M255.5942,113.2187v6.0464h-.4414a13.229,13.229,0,0,0-.5781-1.5381,7.7,7.7,0,0,0-1.1407-1.8208,6.6612,6.6612,0,0,0-1.8867-1.5385,5.6524,5.6524,0,0,0-2.8223-.6538h-5.4043V124.64h1.9024a5.3928,5.3928,0,0,0,2.125-.3716,3.8078,3.8078,0,0,0,1.4453-1.0605,5.8332,5.8332,0,0,0,.9531-1.6621,13.2853,13.2853,0,0,0,.6114-2.1743h.4414v10.9966h-.4414q-.2373-1.0247-.5606-1.98a6.0267,6.0267,0,0,0-.8672-1.68,4.017,4.017,0,0,0-1.3437-1.1489,4.2014,4.2014,0,0,0-1.9883-.4244h-2.2774V137.9h5.5743a6.8179,6.8179,0,0,0,5.0507-2.0859,8.7735,8.7735,0,0,0,1.6133-2.3164,12.842,12.842,0,0,0,.9864-2.8462h.4433v7.7436h-21.727V137.9h3.1274v-24.186h-3.1274v-.4952Z" fill="#020202"/>
        <path d="M267.8676,113.2187,279.19,130.05h.0683V113.7139H276.13v-.4952h6.8v.4952h-3.1279V138.395h-.918l-15.3-22.6655h-.0683V137.9h3.1279v.4951h-6.8V137.9h3.1279v-24.186h-3.1279v-.4952Z" fill="#020202"/>
      </g>
      <g>
        <path d="M130.6782,310.8184l-2.4307-.0059a3.5225,3.5225,0,0,0-.3379-1.6792,3.1,3.1,0,0,0-2.9336-1.3965,1.8051,1.8051,0,0,0-1.3467.9121q-.6034,1.054.6563,2.6294l1.1562,1.4419a7.3614,7.3614,0,0,1,1.6748,3.2573,4.3753,4.3753,0,0,1-.5908,2.9849,4.9674,4.9674,0,0,1-3.2558,2.4927,5.5649,5.5649,0,0,1-4.1895-.6665,5.4335,5.4335,0,0,1-2.582-2.9541,5.7976,5.7976,0,0,1,.2285-4.0161l2.5654.8261a4.185,4.185,0,0,0-.4609,2.0635,3.0511,3.0511,0,0,0,3.6445,2.4229,2.6508,2.6508,0,0,0,1.6865-1.3238,2.6962,2.6962,0,0,0,.3194-.8379,2.2376,2.2376,0,0,0-.0088-.86,3.4829,3.4829,0,0,0-.35-.9307,7.3758,7.3758,0,0,0-.6885-1.0449l-1.1133-1.4058q-2.357-3.0095-.98-5.414a3.937,3.937,0,0,1,2.8438-1.9737,5.5008,5.5008,0,0,1,3.8388.7383A5.19,5.19,0,0,1,130.6782,310.8184Z" fill="#040505" stroke="#f9f9f9" stroke-width="0.25"/>
        <path d="M139.5258,312.2559l-6.8926,15.0864-2.3671-1.0816,6.8916-15.0874Z" fill="#040505" stroke="#f9f9f9" stroke-width="0.25"/>
        <path d="M139.9614,330.5166l5.3056-15.7139,3.4287,1.1577a13.66,13.66,0,0,1,3.7383,1.7842A8.245,8.245,0,0,1,150.6372,331.9a8.2356,8.2356,0,0,1-3.2989.6211,13.8386,13.8386,0,0,1-3.99-.86Zm3.2187-1.3955,1.11.3745a10.1754,10.1754,0,0,0,2.8769.5977,5.9815,5.9815,0,0,0,2.3711-.4585,5.5689,5.5689,0,0,0,3.2266-3.5469,5.66,5.66,0,0,0-.3838-4.8018,7.3838,7.3838,0,0,0-4.2891-3.0459l-1.1113-.3759Z" fill="#040505" stroke="#f9f9f9" stroke-width="0.25"/>
        <path d="M171.9067,324.4917l-6.7754-1.3828-.7969,3.9048,6.5791,1.3427-.4707,2.3047-6.5791-1.3423-1.1074,5.4317,6.7754,1.3823-.47,2.3047-9.3272-1.9023,3.3154-16.252,9.3272,1.9038Z" fill="#040505" stroke="#f9f9f9" stroke-width="0.25"/>
        <path d="M176.5463,339.6177l1.2041-17.6734,11.69,13.4805.7832-11.5,2.5966.1773-1.1953,17.5551-11.6933-13.4482-.7891,11.5859Z" fill="#040505" stroke="#f9f9f9" stroke-width="0.25"/>
        <path d="M212.7055,325.0312l-2.9541.4141,1.0918-2.5181,4.1152-.5761,2.2989,16.4267-2.5782.36Z" fill="#040505" stroke="#f9f9f9" stroke-width="0.25"/>
        <path d="M229.6459,336.9536l-2.1845-.8584,2.6845-6.2436q-.3149.1245-.5371.2011-.2226.0785-.3632.1128a4.9353,4.9353,0,0,1-3.8848-.6089,5.0112,5.0112,0,0,1-2.3672-3.1938,5.2278,5.2278,0,0,1,.6855-4.2031,5.6674,5.6674,0,0,1,3.5469-2.5733,5.8531,5.8531,0,0,1,4.3692.5659,4.9723,4.9723,0,0,1,2.6093,3.2437,7.0906,7.0906,0,0,1-.6308,4.4663Zm-4.2373-11.3848a3.0065,3.0065,0,0,0,1.4707,1.958,3.3583,3.3583,0,0,0,4.4776-1.1127,3.0528,3.0528,0,0,0-1.0821-4.314,3.3578,3.3578,0,0,0-4.4648,1.12A2.9246,2.9246,0,0,0,225.4086,325.5688Z" fill="#040505" stroke="#f9f9f9" stroke-width="0.25"/>
        <path d="M247.0805,331.689,244.809,331.1l1.9141-6.521c-.1992.106-.3682.1943-.51.2637-.14.07-.2558.1211-.3467.1567a4.936,4.936,0,0,1-3.93-.1387,5.01,5.01,0,0,1-2.7334-2.8847,5.2266,5.2266,0,0,1,.1738-4.2559,5.6627,5.6627,0,0,1,3.2119-2.9809,5.8442,5.8442,0,0,1,4.4053.0361,4.9761,4.9761,0,0,1,2.9814,2.9058,7.1019,7.1019,0,0,1-.0888,4.51Zm-5.5752-10.7925a3.001,3.001,0,0,0,1.6944,1.7651,3.3549,3.3549,0,0,0,4.3115-1.6426,3.054,3.054,0,0,0-1.5928-4.1523,3.2126,3.2126,0,0,0-2.4853-.0234,3.18,3.18,0,0,0-1.8116,1.6723A2.9286,2.9286,0,0,0,241.5053,320.8965Z" fill="#040505" stroke="#f9f9f9" stroke-width="0.25"/>
        <path d="M260.2709,309.459l-7.542,3.9492-1.0859-2.0757,11.3916-5.9639-1.6826,20.2452-2.4141-.1543Z" fill="#040505" stroke="#f9f9f9" stroke-width="0.25"/>
      </g>
      <g>
        <path d="M124.5,344.7638a2.5883,2.5883,0,0,1,1.5818-1.3908,2.9231,2.9231,0,0,1,3.6725,1.7075,2.6824,2.6824,0,0,1-1.65,3.55,3.0052,3.0052,0,0,1-3.6913-1.7151A2.6407,2.6407,0,0,1,124.5,344.7638Z" fill="#060707" stroke="#f9f9f9" stroke-width="0.25"/>
        <path d="M195.2607,361.2134a2.5843,2.5843,0,0,1,.8222-1.9387,2.9281,2.9281,0,0,1,4.051-.05,2.6055,2.6055,0,0,1,.8711,1.9379,2.6377,2.6377,0,0,1-.822,1.978,3.0078,3.0078,0,0,1-4.0718.049A2.6379,2.6379,0,0,1,195.2607,361.2134Z" fill="#060707" stroke="#f9f9f9" stroke-width="0.25"/>
        <path d="M266.16,345.6164a2.5815,2.5815,0,0,1-.09-2.1041,2.9248,2.9248,0,0,1,3.6359-1.7859,2.6864,2.6864,0,0,1,1.7249,3.5141,3.001,3.001,0,0,1-3.654,1.7951A2.6325,2.6325,0,0,1,266.16,345.6164Z" fill="#060707" stroke="#f9f9f9" stroke-width="0.25"/>
        <path d="M323.5545,300.7626a2.59,2.59,0,0,1-1.0091-1.8479,2.9261,2.9261,0,0,1,2.4744-3.2076,2.6832,2.6832,0,0,1,3.0994,2.3918,3.0046,3.0046,0,0,1-2.4871,3.2223A2.64,2.64,0,0,1,323.5545,300.7626Z" fill="#060707" stroke="#f9f9f9" stroke-width="0.25"/>
        <path d="M355.8449,235.88a2.5856,2.5856,0,0,1-1.6964-1.2494,2.93,2.93,0,0,1,.8877-3.9527,2.6868,2.6868,0,0,1,3.8223.8592,3.01,3.01,0,0,1-.8931,3.9716A2.6353,2.6353,0,0,1,355.8449,235.88Z" fill="#060707" stroke="#f9f9f9" stroke-width="0.25"/>
        <path d="M357,163.2828a2.5911,2.5911,0,0,1-2.0671-.3986,2.9273,2.9273,0,0,1-.8961-3.9514,2.6881,2.6881,0,0,1,3.8179-.8673,3.0074,3.0074,0,0,1,.9018,3.9717A2.648,2.648,0,0,1,357,163.2828Z" fill="#060707" stroke="#f9f9f9" stroke-width="0.25"/>
        <path d="M326.7736,97.1935a2.5874,2.5874,0,0,1-2.0375.5346,2.9278,2.9278,0,0,1-2.5181-3.1736,2.684,2.684,0,0,1,3.0674-2.4326,2.809,2.809,0,0,1,1.8825,1.091,2.8377,2.8377,0,0,1,.6491,2.0971A2.6466,2.6466,0,0,1,326.7736,97.1935Z" fill="#060707" stroke="#f9f9f9" stroke-width="0.25"/>
        <path d="M271.0228,50.6709a2.5825,2.5825,0,0,1-1.6084,1.3572,2.9233,2.9233,0,0,1-3.637-1.785,2.6024,2.6024,0,0,1,.0971-2.12,2.63,2.63,0,0,1,1.626-1.394,3.0056,3.0056,0,0,1,3.6559,1.7937A2.6357,2.6357,0,0,1,271.0228,50.6709Z" fill="#060707" stroke="#f9f9f9" stroke-width="0.25"/>
        <path d="M200.64,32.7386a2.581,2.581,0,0,1-.8647,1.92,2.9265,2.9265,0,0,1-4.0515-.0346,2.6855,2.6855,0,0,1,.0351-3.9147,3.004,3.004,0,0,1,4.071.0339A2.6412,2.6412,0,0,1,200.64,32.7386Z" fill="#060707" stroke="#f9f9f9" stroke-width="0.25"/>
        <path d="M129.4013,46.856a2.5971,2.5971,0,0,1,.0444,2.106,2.9263,2.9263,0,0,1-3.6733,1.71,2.6853,2.6853,0,0,1-1.65-3.5495,2.813,2.813,0,0,1,1.4993-1.5765,2.8449,2.8449,0,0,1,2.192-.1422A2.6481,2.6481,0,0,1,129.4013,46.856Z" fill="#060707" stroke="#f9f9f9" stroke-width="0.25"/>
        <path d="M71.1546,90.4725a2.5857,2.5857,0,0,1,.9493,1.88,2.9267,2.9267,0,0,1-2.578,3.1258,2.687,2.687,0,0,1-3.0208-2.4911,2.8142,2.8142,0,0,1,.6753-2.0685,2.843,2.843,0,0,1,1.9152-1.0732A2.6457,2.6457,0,0,1,71.1546,90.4725Z" fill="#060707" stroke="#f9f9f9" stroke-width="0.25"/>
        <path d="M37.4474,154.6966a2.5876,2.5876,0,0,1,1.67,1.2846,2.9256,2.9256,0,0,1-.9718,3.933,2.6048,2.6048,0,0,1-2.0937.3557,2.6335,2.6335,0,0,1-1.7074-1.2938,3.0022,3.0022,0,0,1,.9759-3.9528A2.64,2.64,0,0,1,37.4474,154.6966Z" fill="#060707" stroke="#f9f9f9" stroke-width="0.25"/>
        <path d="M34.7866,227.29a2.5849,2.5849,0,0,1,2.0594.4413,2.9271,2.9271,0,0,1,.8158,3.9671,2.6052,2.6052,0,0,1-1.7386,1.2228,2.6332,2.6332,0,0,1-2.0973-.4336A2.8108,2.8108,0,0,1,32.64,230.663a2.8441,2.8441,0,0,1,.3663-2.1645A2.6437,2.6437,0,0,1,34.7866,227.29Z" fill="#060707" stroke="#f9f9f9" stroke-width="0.25"/>
        <path d="M63.6154,293.9551a2.5792,2.5792,0,0,1,2.046-.4919,2.927,2.927,0,0,1,2.452,3.2255,2.6042,2.6042,0,0,1-1.0389,1.8527,2.6318,2.6318,0,0,1-2.0789.5162,3.0038,3.0038,0,0,1-2.4626-3.2427A2.6376,2.6376,0,0,1,63.6154,293.9551Z" fill="#060707" stroke="#f9f9f9" stroke-width="0.25"/>
      </g>
      <g>
        <rect x="146.8378" y="162.4563" width="152.6381" height="8.3267" fill="none" stroke="#020202" stroke-miterlimit="10" stroke-width="2"/>
        <rect x="141.5237" y="167.5893" width="5.314" height="39.018" fill="none" stroke="#020202" stroke-miterlimit="10" stroke-width="2"/>
        <path d="M141.5237,167.5893H70.4946s24.0545,47.02,71.0291,39.0179Z" fill="none" stroke="#020202" stroke-miterlimit="10" stroke-width="2"/>
        <path d="M146.8378,206.6072s19.348-3.3369,20.9582,9.3623-3.68,20.9925-32.4338,28.5084l-9.4311,15.1192" fill="none" stroke="#020202" stroke-miterlimit="10" stroke-width="2"/>
        <rect x="126.0951" y="259.5971" width="32.9598" height="12.256" fill="none" stroke="#020202" stroke-miterlimit="10" stroke-width="2"/>
        <rect x="225.352" y="259.5971" width="32.8456" height="12.256" fill="none" stroke="#020202" stroke-miterlimit="10" stroke-width="2"/>
        <path d="M159.055,259.5971s32.8594-45.26,66.297,0V271.626a.166.166,0,0,1-.2439.1654c-2.7151-1.7158-27.9032-16.4944-65.8.0472a.1886.1886,0,0,1-.2534-.1926Z" fill="none" stroke="#020202" stroke-miterlimit="10" stroke-width="2"/>
        <path d="M163.7846,231.3192s-1.2672,19.7363-37.8535,28.2779" fill="none" stroke="#020202" stroke-miterlimit="10" stroke-width="2"/>
        <path d="M225.352,231.0088s2.1259,21.6963,32.7153,28.4987a.2444.2444,0,0,0,.2522-.3395l-4.8873-13.4055-16.4765-6.281c-28.5732-13.5656-9.2985-35.1414-9.2985-35.1414,19.6968-19.202,61.4394-19.2038,61.4394-19.2038,9.1392-.202,6.4655-14.3533,6.4655-14.3533" fill="none" stroke="#020202" stroke-miterlimit="10" stroke-width="2"/>
        <path d="M70.4946,167.5893s18.5135,7.5549,39.5219,7.5549c0,0,21.2531-3.7775,31.5072-7.5549" fill="none" stroke="#020202" stroke-miterlimit="10" stroke-width="2"/>
      </g>
    </g>
  </g>
</svg>
