<?xml version="1.0" encoding="utf-8"?>
<!-- Generator: Adobe Illustrator 22.0.1, SVG Export Plug-In . SVG Version: 6.00 Build 0)  -->
<svg version="1.1" id="Layer_1" xmlns="http://www.w3.org/2000/svg" xmlns:xlink="http://www.w3.org/1999/xlink" x="0px" y="0px"
	 viewBox="0 0 388.9 388.9" style="enable-background:new 0 0 388.9 388.9;" xml:space="preserve">
<style type="text/css">
	.st0{fill:none;stroke:#020202;stroke-width:2.8562;stroke-miterlimit:10;}
	.st1{fill:none;stroke:#020202;stroke-width:7.6165;stroke-miterlimit:10;}
	.st2{fill:#050505;stroke:#050505;stroke-width:0.238;}
	.st3{fill:#020202;}
	.st4{fill:#040505;stroke:#F9F9F9;stroke-width:0.238;}
	.st5{fill:#060707;}
	.st6{fill:none;stroke:#020202;stroke-width:1.9041;stroke-miterlimit:10;}
</style>
<title>Asset 2</title>
<circle class="st0" cx="193" cy="194.7" r="183.7"/>
<circle class="st1" cx="193" cy="194.7" r="172.4"/>
<g>
	<g>
		<path class="st2" d="M122.3,108.7V85h1.2v14.9l15-14.9h1.5l-10.4,10.4l10.8,13.3h-1.4l-10.3-12.6l-5.3,5.3v7.3H122.3z"/>
		<path class="st2" d="M146.9,85l9.9,22.2l9.9-22.2h1.3l-10.6,23.7h-1.2L145.6,85H146.9z"/>
		<path class="st2" d="M176.2,108.7V85h1.2v23.7H176.2z"/>
		<path class="st2" d="M189.6,87.2v21.5h-1.2V85h0.9l18.1,21.8V85h1.2v23.7h-1.2L189.6,87.2z"/>
		<path class="st2" d="M219.6,108.7V85h8c1.7,0,3.5,0.3,5.1,0.9c1.4,0.6,2.6,1.4,3.6,2.5c1,1.1,1.7,2.4,2.2,3.7
			c0.5,1.5,0.7,3,0.7,4.6c0,1.7-0.3,3.3-0.8,4.9c-0.5,1.4-1.3,2.7-2.3,3.7c-1,1.1-2.3,1.9-3.7,2.4c-1.5,0.6-3.2,0.9-4.8,0.8
			L219.6,108.7z M238,96.8c0-1.5-0.2-2.9-0.7-4.3c-0.4-1.3-1.1-2.4-2-3.4c-0.9-1-2-1.7-3.3-2.2c-1.4-0.6-2.9-0.8-4.4-0.8h-6.8v21.5
			h6.8c1.5,0,3.1-0.2,4.5-0.8c1.2-0.5,2.4-1.3,3.3-2.3c0.9-1,1.6-2.2,2-3.4C237.8,99.7,238,98.3,238,96.8L238,96.8z"/>
		<path class="st2" d="M264.8,107.6v1.1h-16.3V85h15.9v1.1h-14.7v10h12.9v1.1h-12.9v10.5L264.8,107.6z"/>
	</g>
	<g>
		<path class="st3" d="M135.5,124.2c-0.3-0.2-0.5-0.5-0.8-0.7c-0.5-0.3-1-0.6-1.5-0.8c-0.6-0.3-1.3-0.5-1.9-0.7
			c-0.7-0.2-1.4-0.3-2.1-0.3c-1-0.1-2,0.2-2.8,0.7c-0.6,0.5-1,1.3-0.9,2c0,0.4,0.1,0.9,0.4,1.3c0.3,0.4,0.6,0.7,1,0.9
			c0.5,0.3,1.1,0.5,1.7,0.7c0.7,0.2,1.5,0.4,2.3,0.7c1.2,0.3,2.2,0.7,3.1,1c0.9,0.3,1.7,0.8,2.4,1.4c0.6,0.5,1.2,1.2,1.5,2
			c0.4,0.9,0.6,1.9,0.5,2.9c0,1.2-0.2,2.3-0.7,3.4c-0.4,0.9-1.1,1.7-1.9,2.3c-0.8,0.6-1.8,1-2.8,1.3c-1.1,0.3-2.2,0.4-3.3,0.4
			c-1.8,0-3.6-0.3-5.3-0.8c-1.7-0.5-3.2-1.3-4.7-2.4l2-4.1c0.3,0.3,0.7,0.6,1.1,0.8c0.6,0.4,1.2,0.7,1.8,1c0.8,0.4,1.6,0.6,2.4,0.8
			c0.9,0.2,1.8,0.3,2.7,0.3c2.5,0,3.8-0.8,3.8-2.5c0-0.5-0.1-1-0.4-1.4c-0.3-0.4-0.8-0.7-1.2-1c-0.6-0.3-1.3-0.6-1.9-0.8
			c-0.8-0.2-1.6-0.5-2.5-0.8c-1-0.3-2-0.6-2.9-1.1c-0.8-0.3-1.5-0.8-2.1-1.4c-0.5-0.5-1-1.1-1.2-1.8c-0.3-0.8-0.4-1.6-0.4-2.4
			c0-1.1,0.2-2.3,0.7-3.3c0.4-0.9,1.1-1.8,1.8-2.4c0.8-0.7,1.7-1.2,2.7-1.5c1.1-0.3,2.2-0.5,3.4-0.5c1.6,0,3.1,0.3,4.6,0.8
			c1.3,0.5,2.5,1.1,3.7,1.9L135.5,124.2z"/>
		<path class="st3" d="M161.3,142.3V126l-6.1,12.1h-2.5l-6.1-12.1v16.3H142v-24.6h4.9l7,14l7.1-14h4.9v24.6L161.3,142.3z"/>
		<path class="st3" d="M187.4,138.1v4.2H171v-24.6h16.1v4.2h-11.5v5.9h10v3.9h-10v6.4H187.4z"/>
		<path class="st3" d="M191.1,142.3v-24.6h8.6c1.7,0,3.5,0.3,5.1,1c1.4,0.6,2.6,1.5,3.6,2.6c1,1.1,1.7,2.5,2.2,3.9
			c0.5,1.5,0.7,3.1,0.7,4.8c0,1.7-0.3,3.4-0.8,5.1c-0.5,1.4-1.3,2.8-2.3,3.9c-1,1.1-2.3,1.9-3.7,2.5c-1.5,0.6-3.2,0.9-4.8,0.9
			L191.1,142.3z M206.8,130c0-1.1-0.1-2.2-0.5-3.3c-0.3-0.9-0.7-1.8-1.4-2.6c-0.6-0.7-1.4-1.3-2.2-1.7c-0.9-0.4-2-0.6-3-0.6h-4v16.2
			h4c1,0,2.1-0.2,3-0.6c0.9-0.4,1.6-1,2.2-1.7c0.6-0.8,1.1-1.6,1.3-2.6C206.6,132.2,206.8,131.1,206.8,130z"/>
		<path class="st3" d="M215.1,142.3v-24.6h4.6v24.6L215.1,142.3z"/>
		<path class="st3" d="M241.2,138.1v4.2h-16.4v-24.6h16.1v4.2h-11.5v5.9h10v3.9h-10v6.4H241.2z"/>
		<path class="st3" d="M249.5,126.6v15.8h-4.6v-24.6h3.6l12.3,16.1v-16.1h4.6v24.6h-3.7L249.5,126.6z"/>
	</g>
</g>
<g>
	<path class="st4" d="M133.5,305.4l-2.3,0c0-0.6-0.1-1.1-0.3-1.6c-0.6-0.9-1.7-1.4-2.8-1.3c-0.5,0.1-1,0.4-1.3,0.9
		c-0.4,0.7-0.2,1.5,0.6,2.5l1.1,1.4c0.8,0.9,1.3,1.9,1.6,3.1c0.2,1,0,2-0.6,2.8c-0.6,1.2-1.8,2.1-3.1,2.4c-1.4,0.3-2.8,0.1-4-0.6
		c-1.1-0.6-2-1.6-2.5-2.8c-0.4-1.3-0.3-2.6,0.2-3.8l2.4,0.8c-0.3,0.6-0.5,1.3-0.4,2c0.1,0.9,0.7,1.6,1.4,2c0.6,0.4,1.3,0.5,2,0.3
		c0.7-0.2,1.3-0.6,1.6-1.3c0.1-0.2,0.2-0.5,0.3-0.8c0.1-0.3,0-0.5,0-0.8c-0.1-0.3-0.2-0.6-0.3-0.9c-0.2-0.3-0.4-0.7-0.7-1l-1.1-1.3
		c-1.5-1.9-1.8-3.6-0.9-5.2c0.6-1,1.6-1.7,2.7-1.9c1.3-0.2,2.6,0,3.7,0.7C132.6,301.8,133.6,303.6,133.5,305.4z"/>
	<path class="st4" d="M142,306.8l-6.6,14.4l-2.3-1l6.6-14.4L142,306.8z"/>
	<path class="st4" d="M142.4,324.2l5.1-15l3.3,1.1c1.3,0.4,2.5,1,3.6,1.7c3.4,2.6,4.1,7.6,1.5,11c-0.8,1.1-1.9,1.9-3.2,2.5
		c-1,0.4-2.1,0.6-3.1,0.6c-1.3-0.1-2.6-0.4-3.8-0.8L142.4,324.2z M145.4,322.9l1.1,0.4c0.9,0.3,1.8,0.5,2.7,0.6
		c0.8,0,1.5-0.1,2.3-0.4c1.5-0.6,2.6-1.8,3.1-3.4c0.6-1.5,0.4-3.2-0.4-4.6c-1-1.4-2.4-2.5-4.1-2.9l-1.1-0.4L145.4,322.9z"/>
	<path class="st4" d="M172.8,318.5l-6.5-1.3l-0.8,3.7l6.3,1.3l-0.4,2.2l-6.3-1.3l-1.1,5.2l6.5,1.3l-0.4,2.2l-8.9-1.8l3.2-15.5
		l8.9,1.8L172.8,318.5z"/>
	<path class="st4" d="M177.2,332.9l1.1-16.8l11.1,12.8l0.7-10.9l2.5,0.2l-1.1,16.7L180.4,322l-0.8,11L177.2,332.9z"/>
	<path class="st4" d="M211.6,319l-2.8,0.4l1-2.4l3.9-0.5l2.2,15.6l-2.5,0.3L211.6,319z"/>
	<path class="st4" d="M227.8,330.3l-2.1-0.8l2.6-5.9c-0.2,0.1-0.4,0.1-0.5,0.2c-0.1,0-0.3,0.1-0.3,0.1c-1.3,0.3-2.6,0.1-3.7-0.6
		c-1.1-0.7-2-1.8-2.3-3c-0.4-1.4-0.1-2.8,0.7-4c0.8-1.2,2-2.1,3.4-2.4c1.4-0.4,2.9-0.2,4.2,0.5c1.2,0.6,2.1,1.7,2.5,3.1
		c0.3,1.4,0.1,2.9-0.6,4.3L227.8,330.3z M223.7,319.5c0.2,0.8,0.7,1.5,1.4,1.9c1.5,0.8,3.3,0.4,4.3-1.1c0.9-1.4,0.5-3.2-0.9-4
		c0,0-0.1-0.1-0.2-0.1c-1.5-0.8-3.3-0.4-4.3,1.1C223.7,317.9,223.5,318.7,223.7,319.5L223.7,319.5z"/>
	<path class="st4" d="M244.3,325.3l-2.2-0.6l1.8-6.2c-0.2,0.1-0.3,0.2-0.5,0.3s-0.2,0.1-0.3,0.1c-1.2,0.5-2.6,0.4-3.7-0.1
		c-1.2-0.5-2.2-1.5-2.6-2.7c-0.5-1.3-0.5-2.8,0.2-4.1c0.6-1.3,1.7-2.3,3.1-2.8c1.3-0.5,2.9-0.5,4.2,0c1.3,0.5,2.3,1.5,2.8,2.8
		c0.4,1.4,0.4,2.9-0.1,4.3L244.3,325.3z M239,315c0.3,0.8,0.9,1.4,1.6,1.7c1.6,0.7,3.4,0,4.1-1.6c0.7-1.4,0.1-3.2-1.4-3.9
		c-0.1,0-0.1,0-0.2-0.1c-1.6-0.6-3.4,0-4.1,1.6C238.8,313.5,238.8,314.3,239,315z"/>
	<path class="st4" d="M256.9,304.1l-7.2,3.8l-1-2l10.8-5.7l-1.6,19.3l-2.3-0.1L256.9,304.1z"/>
</g>
<g>
	<path class="st5" d="M105.8,324.9c0.4-0.6,1-1,1.7-1.1c1.5-0.2,2.9,0.7,3.2,2.2c0.3,1.4-0.6,2.7-1.9,3.1c-0.1,0-0.1,0-0.2,0
		c-1.5,0.2-2.9-0.7-3.2-2.2C105.2,326.2,105.4,325.5,105.8,324.9z"/>
	<path class="st5" d="M169.7,351.3c0.1-0.7,0.5-1.3,1.1-1.7c1.2-0.9,2.9-0.6,3.8,0.6c0.4,0.5,0.6,1.3,0.5,2
		c-0.1,0.7-0.5,1.3-1.1,1.7c-1.2,0.8-2.9,0.6-3.8-0.6C169.8,352.7,169.6,352,169.7,351.3z"/>
	<path class="st5" d="M238.8,347.5c-0.2-0.7-0.1-1.4,0.2-2c0.7-1.3,2.4-1.8,3.7-1.1c1.3,0.6,1.8,2.2,1.2,3.4c0,0,0,0.1-0.1,0.1
		c-0.8,1.3-2.4,1.8-3.7,1.1C239.4,348.8,239,348.2,238.8,347.5z"/>
	<path class="st5" d="M299.6,314.2c-0.5-0.5-0.7-1.2-0.7-1.9c0.1-1.5,1.3-2.7,2.8-2.6c1.4,0,2.6,1.1,2.5,2.6c0,0.1,0,0.1,0,0.2
		c-0.1,1.5-1.3,2.6-2.8,2.6C300.7,315.1,300.1,314.8,299.6,314.2z"/>
	<path class="st5" d="M339.9,258.2c-0.6-0.3-1.2-0.8-1.4-1.4c-0.6-1.4,0.1-3,1.4-3.6c1.3-0.6,2.8,0,3.4,1.2c0,0,0,0.1,0.1,0.1
		c0.5,1.4-0.1,3-1.5,3.6C341.3,258.5,340.6,258.5,339.9,258.2z"/>
	<path class="st5" d="M352.2,190.2c-0.7,0-1.4-0.2-1.9-0.7c-1.1-1-1.2-2.7-0.2-3.9c0.9-1.1,2.5-1.2,3.6-0.3c0,0,0.1,0.1,0.1,0.1
		c1.1,1,1.2,2.7,0.2,3.9C353.6,189.8,352.9,190.2,352.2,190.2z"/>
	<path class="st5" d="M333.9,123.5c-0.6,0.3-1.3,0.4-2,0.2c-1.4-0.4-2.3-1.9-1.9-3.4c0.3-1.4,1.7-2.2,3.1-1.9c0.1,0,0.1,0,0.2,0
		c0.7,0.2,1.3,0.7,1.6,1.3c0.4,0.6,0.5,1.4,0.3,2.1C335,122.5,334.6,123.1,333.9,123.5z"/>
	<path class="st5" d="M288.7,71.2c-0.4,0.6-1,0.9-1.7,1c-1.5,0.2-2.9-0.8-3.1-2.2c-0.1-0.7,0-1.4,0.4-2c0.4-0.6,1-1,1.7-1.1
		c1.5-0.2,2.9,0.8,3.2,2.2C289.3,69.9,289.2,70.6,288.7,71.2z"/>
	<path class="st5" d="M225.4,43.5c-0.1,0.7-0.5,1.3-1.1,1.7c-1.2,0.8-2.9,0.5-3.8-0.7c-0.8-1.1-0.6-2.7,0.5-3.6c0,0,0.1-0.1,0.1-0.1
		c1.3-0.8,2.9-0.5,3.8,0.7C225.3,42.1,225.5,42.8,225.4,43.5z"/>
	<path class="st5" d="M156.3,45.8c0.2,0.7,0.1,1.4-0.3,2c-0.8,1.3-2.4,1.7-3.7,1c-1.3-0.7-1.7-2.2-1.1-3.4c0,0,0.1-0.1,0.1-0.1
		c0.4-0.6,1-1.1,1.7-1.3c0.7-0.2,1.4-0.1,2.1,0.2C155.6,44.5,156.1,45.1,156.3,45.8z"/>
	<path class="st5" d="M94.8,77.8c0.5,0.5,0.7,1.2,0.6,1.9c-0.1,1.5-1.4,2.6-2.9,2.5C91.1,82.2,90,81,90,79.6c0-0.1,0-0.1,0-0.2
		c0.1-0.7,0.4-1.4,1-1.8c0.5-0.5,1.2-0.7,2-0.7C93.7,76.9,94.4,77.2,94.8,77.8z"/>
	<path class="st5" d="M53.3,133c0.6,0.3,1.1,0.8,1.4,1.5c0.5,1.4-0.1,3-1.5,3.5c-0.6,0.3-1.4,0.3-2,0c-0.7-0.3-1.2-0.8-1.4-1.5
		c-0.5-1.4,0.2-3,1.5-3.6C51.9,132.6,52.6,132.7,53.3,133z"/>
	<path class="st5" d="M39.6,200.7c0.7,0,1.4,0.2,1.9,0.7c1.1,1,1.1,2.7,0.2,3.9c-0.5,0.5-1.1,0.9-1.8,0.9c-0.7,0-1.4-0.2-1.9-0.7
		c-0.5-0.5-0.8-1.2-0.8-1.9c0-0.7,0.2-1.4,0.7-2C38.2,201.1,38.9,200.8,39.6,200.7z"/>
	<path class="st5" d="M56.4,267.8c0.6-0.3,1.3-0.4,2-0.1c1.4,0.5,2.2,2,1.8,3.4c-0.2,0.7-0.6,1.3-1.3,1.6c-0.6,0.3-1.4,0.4-2,0.2
		c-1.4-0.5-2.2-2-1.8-3.4C55.3,268.7,55.8,268.1,56.4,267.8z"/>
</g>
<g>
	<rect x="148.9" y="174.3" class="st6" width="145.3" height="7.9"/>
	<rect x="143.8" y="179.2" class="st6" width="5.1" height="37.1"/>
	<path class="st6" d="M143.8,179.2H76.2c0,0,22.9,44.8,67.6,37.1V179.2z"/>
	<path class="st6" d="M148.9,216.3c0,0,18.4-3.2,20,8.9c1.5,12.1-3.5,20-30.9,27.1l-9,14.4"/>
	<rect x="129.1" y="266.8" class="st6" width="31.4" height="11.7"/>
	<rect x="223.6" y="266.8" class="st6" width="31.3" height="11.7"/>
	<path class="st6" d="M160.5,266.8c0,0,31.3-43.1,63.1,0v11.5c0,0.1-0.1,0.2-0.1,0.2c0,0-0.1,0-0.1,0c-2.6-1.6-26.6-15.7-62.6,0
		c-0.1,0-0.2,0-0.2-0.1c0,0,0-0.1,0-0.1L160.5,266.8z"/>
	<path class="st6" d="M165,239.8c0,0-1.2,18.8-36,26.9"/>
	<path class="st6" d="M223.6,239.5c0,0,2,20.7,31.1,27.1c0.1,0,0.2-0.1,0.3-0.2c0,0,0-0.1,0-0.1l-4.7-12.8l-15.7-6
		c-27.2-12.9-8.9-33.5-8.9-33.5c18.8-18.3,58.5-18.3,58.5-18.3c8.7-0.2,6.2-13.7,6.2-13.7"/>
	<path class="st6" d="M76.2,179.2c0,0,17.6,7.2,37.6,7.2c0,0,20.2-3.6,30-7.2"/>
</g>
</svg>
