<svg xmlns="http://www.w3.org/2000/svg" viewBox="0 0 388.8824 388.8824">
  <title>Asset 1</title>
  <g id="Layer_2" data-name="Layer 2">
    <g id="Layer_1-2" data-name="Layer 1">
      <circle cx="194.4412" cy="194.4412" r="192.9412" fill="none" stroke="#f9f9f9" stroke-miterlimit="10" stroke-width="3"/>
      <circle cx="194.4412" cy="194.4412" r="181.0373" fill="none" stroke="#f9f9f9" stroke-miterlimit="10" stroke-width="8"/>
      <g>
        <g>
          <path d="M118.942,104.1134v-24.85h1.2739v15.645l15.7973-15.645h1.5655L126.6949,90.1486l11.393,13.9648h-1.4921l-10.7745-13.23-5.6054,5.53v7.7Z" fill="#fdfdfb" stroke="#f9f9f9" stroke-width="0.25"/>
          <path d="M144.7491,79.2633,155.16,102.6085l10.3736-23.3452H166.88l-11.102,24.85h-1.2378l-11.1021-24.85Z" fill="#fdfdfb" stroke="#f9f9f9" stroke-width="0.25"/>
          <path d="M175.5435,104.1134v-24.85h1.2739v24.85Z" fill="#fdfdfb" stroke="#f9f9f9" stroke-width="0.25"/>
          <path d="M189.63,81.5734v22.54h-1.274v-24.85h.9463l19.0005,22.9253V79.2633h1.2744v24.85h-1.2378Z" fill="#fdfdfb" stroke="#f9f9f9" stroke-width="0.25"/>
          <path d="M221.1163,104.1134v-24.85H229.56a13.544,13.544,0,0,1,5.3516.98,10.6564,10.6564,0,0,1,3.8037,2.66,11.1655,11.1655,0,0,1,2.2744,3.9375,14.9008,14.9008,0,0,1,.7656,4.8125,14.5739,14.5739,0,0,1-.8554,5.1274,11.11,11.11,0,0,1-2.4395,3.92,10.8406,10.8406,0,0,1-3.84,2.52,13.6586,13.6586,0,0,1-5.0606.8926Zm19.3642-12.46a13.8293,13.8293,0,0,0-.71-4.5152,9.8825,9.8825,0,0,0-2.1114-3.57,9.6624,9.6624,0,0,0-3.4394-2.3452,12.1446,12.1446,0,0,0-4.66-.84h-7.17v22.61h7.17a12.115,12.115,0,0,0,4.7324-.8574,9.5413,9.5413,0,0,0,3.4219-2.38,9.9527,9.9527,0,0,0,2.0742-3.605A14.1884,14.1884,0,0,0,240.4805,91.6535Z" fill="#fdfdfb" stroke="#f9f9f9" stroke-width="0.25"/>
          <path d="M268.6534,102.9933v1.12H251.5811v-24.85h16.7442v1.12H252.8565V90.8483h13.541v1.12h-13.541v11.0249Z" fill="#fdfdfb" stroke="#f9f9f9" stroke-width="0.25"/>
        </g>
        <g>
          <path d="M132.8423,120.3576a6.0235,6.0235,0,0,0-.8925-.6914,10.7609,10.7609,0,0,0-1.5747-.8555,13.3494,13.3494,0,0,0-2.0127-.71,8.4876,8.4876,0,0,0-2.2051-.291,4.8022,4.8022,0,0,0-2.9751.7642,2.5684,2.5684,0,0,0-.98,2.1479,2.27,2.27,0,0,0,.3677,1.3286,3.21,3.21,0,0,0,1.0674.9283,8.7867,8.7867,0,0,0,1.7675.728q1.0673.3273,2.4673.6914,1.82.51,3.3076,1.0918a8.8939,8.8939,0,0,1,2.52,1.456,5.9894,5.9894,0,0,1,1.5927,2.0933,7.1906,7.1906,0,0,1,.56,3.0029,7.73,7.73,0,0,1-.7524,3.5489,6.5,6.5,0,0,1-2.03,2.3842,8.6519,8.6519,0,0,1-2.94,1.3287,14.2269,14.2269,0,0,1-3.4824.4184,18.0417,18.0417,0,0,1-5.53-.8735,16.7944,16.7944,0,0,1-4.9-2.4751l2.1348-4.3316a6.7819,6.7819,0,0,0,1.1377.8555,17.0059,17.0059,0,0,0,1.9424,1.0557,14.67,14.67,0,0,0,2.4853.8916,10.818,10.818,0,0,0,2.8.3642q3.99,0,3.99-2.6572a2.2408,2.2408,0,0,0-.4546-1.42,3.8916,3.8916,0,0,0-1.2954-1.0191,12.1133,12.1133,0,0,0-2.03-.8007q-1.19-.3633-2.66-.8008a22.05,22.05,0,0,1-3.0971-1.11,8.1009,8.1009,0,0,1-2.1875-1.4194,5.3107,5.3107,0,0,1-1.3125-1.8931,6.7786,6.7786,0,0,1-.4375-2.5659,8.3069,8.3069,0,0,1,.7-3.4946,7.0251,7.0251,0,0,1,1.9429-2.5479,8.679,8.679,0,0,1,2.8872-1.5469,11.5173,11.5173,0,0,1,3.5351-.5278,13.2459,13.2459,0,0,1,4.83.8555,17.7437,17.7437,0,0,1,3.85,2.02Z" fill="#fafaf8"/>
          <path d="M159.897,139.4313V122.3234l-6.4048,12.74h-2.625l-6.4052-12.74v17.1079h-4.83V113.5871h5.18l7.35,14.706,7.42-14.706h5.145v25.8442Z" fill="#fafaf8"/>
          <path d="M187.3018,135.027v4.4043H170.0464V113.5871h16.94v4.4047h-12.11v6.2242h10.4649v4.0771H174.8765v6.7339Z" fill="#fafaf8"/>
          <path d="M191.2217,139.4313V113.5871h9.03a13.04,13.04,0,0,1,5.3374,1.0195,10.9747,10.9747,0,0,1,3.8325,2.7661,11.5735,11.5735,0,0,1,2.31,4.0952,15.9808,15.9808,0,0,1,.77,5.0049,15.6786,15.6786,0,0,1-.8574,5.3325,11.4624,11.4624,0,0,1-2.4678,4.0772,11.0764,11.0764,0,0,1-3.8672,2.6206,13.1948,13.1948,0,0,1-5.0576.9282Zm16.4151-12.9585a11.4194,11.4194,0,0,0-.49-3.4214,7.7585,7.7585,0,0,0-1.435-2.6938,6.4136,6.4136,0,0,0-2.3277-1.7471,7.5969,7.5969,0,0,0-3.1323-.6187h-4.2V135.027h4.2a7.3122,7.3122,0,0,0,3.1675-.6553,6.5236,6.5236,0,0,0,2.31-1.8017,8.1391,8.1391,0,0,0,1.4175-2.7119A11.2864,11.2864,0,0,0,207.6368,126.4728Z" fill="#fafaf8"/>
          <path d="M216.4219,139.4313V113.5871h4.83v25.8442Z" fill="#fafaf8"/>
          <path d="M243.8262,135.027v4.4043H226.5713V113.5871h16.94v4.4047h-12.11v6.2242h10.4649v4.0771H231.4014v6.7339Z" fill="#fafaf8"/>
          <path d="M252.5762,122.8693v16.562h-4.83V113.5871h3.7451l12.95,16.9624V113.6237h4.83v25.8076h-3.92Z" fill="#fafaf8"/>
        </g>
      </g>
      <g>
        <path d="M129.78,347.2155a2.5886,2.5886,0,0,1,1.5315-1.4459,2.9229,2.9229,0,0,1,3.7308,1.576,2.6823,2.6823,0,0,1-1.5233,3.606,3.005,3.005,0,0,1-3.75-1.583A2.6409,2.6409,0,0,1,129.78,347.2155Z" fill="#fdfdfb" stroke="#f9f9f9" stroke-width="0.25"/>
        <path d="M201.08,361.1437a2.5843,2.5843,0,0,1,.7529-1.9667,2.9281,2.9281,0,0,1,4.0466-.1935,2.6055,2.6055,0,0,1,.9393,1.9058,2.6371,2.6371,0,0,1-.7512,2.0058,3.0078,3.0078,0,0,1-4.0675.1936A2.638,2.638,0,0,1,201.08,361.1437Z" fill="#fdfdfb" stroke="#f9f9f9" stroke-width="0.25"/>
        <path d="M271.3815,343.0405a2.5815,2.5815,0,0,1-.1645-2.1,2.9248,2.9248,0,0,1,3.57-1.9138,2.6862,2.6862,0,0,1,1.8485,3.4507,3.0007,3.0007,0,0,1-3.588,1.9235A2.6322,2.6322,0,0,1,271.3815,343.0405Z" fill="#fdfdfb" stroke="#f9f9f9" stroke-width="0.25"/>
        <path d="M327.1478,296.1781a2.5894,2.5894,0,0,1-1.0741-1.811,2.9261,2.9261,0,0,1,2.359-3.2933,2.6831,2.6831,0,0,1,3.1823,2.28,3.0045,3.0045,0,0,1-2.3711,3.3086A2.64,2.64,0,0,1,327.1478,296.1781Z" fill="#fdfdfb" stroke="#f9f9f9" stroke-width="0.25"/>
        <path d="M357.1153,230.19a2.5852,2.5852,0,0,1-1.74-1.1884,2.93,2.93,0,0,1,.7469-3.9817,2.6867,2.6867,0,0,1,3.85.723,3.01,3.01,0,0,1-.7515,4.0008A2.6349,2.6349,0,0,1,357.1153,230.19Z" fill="#fdfdfb" stroke="#f9f9f9" stroke-width="0.25"/>
        <path d="M355.6935,157.5979a2.59,2.59,0,0,1-2.08-.3249,2.9273,2.9273,0,0,1-1.0357-3.9171,2.6881,2.6881,0,0,1,3.7847-1.0023,3.0074,3.0074,0,0,1,1.0421,3.9372A2.6475,2.6475,0,0,1,355.6935,157.5979Z" fill="#fdfdfb" stroke="#f9f9f9" stroke-width="0.25"/>
        <path d="M323.1407,92.623a2.5874,2.5874,0,0,1-2.0173.6065,2.9277,2.9277,0,0,1-2.6292-3.0822,2.6842,2.6842,0,0,1,2.9792-2.54,2.8089,2.8089,0,0,1,1.92,1.0235,2.8381,2.8381,0,0,1,.7232,2.0727A2.6471,2.6471,0,0,1,323.1407,92.623Z" fill="#fdfdfb" stroke="#f9f9f9" stroke-width="0.25"/>
        <path d="M265.774,48.1082a2.5828,2.5828,0,0,1-1.5593,1.4134,2.9233,2.9233,0,0,1-3.698-1.6548,2.602,2.602,0,0,1,.0218-2.1225,2.63,2.63,0,0,1,1.5754-1.4509,3.0056,3.0056,0,0,1,3.7173,1.6629A2.6359,2.6359,0,0,1,265.774,48.1082Z" fill="#fdfdfb" stroke="#f9f9f9" stroke-width="0.25"/>
        <path d="M194.7986,32.6849a2.5807,2.5807,0,0,1-.796,1.95,2.9265,2.9265,0,0,1-4.05.1092,2.6855,2.6855,0,0,1-.1039-3.9135,3.0039,3.0039,0,0,1,4.07-.1105A2.6411,2.6411,0,0,1,194.7986,32.6849Z" fill="#fdfdfb" stroke="#f9f9f9" stroke-width="0.25"/>
        <path d="M124.1063,49.3215a2.5973,2.5973,0,0,1,.1191,2.1031,2.9264,2.9264,0,0,1-3.61,1.8388,2.6853,2.6853,0,0,1-1.7753-3.4887,2.8131,2.8131,0,0,1,1.4424-1.6286,2.8451,2.8451,0,0,1,2.1856-.22A2.6479,2.6479,0,0,1,124.1063,49.3215Z" fill="#fdfdfb" stroke="#f9f9f9" stroke-width="0.25"/>
        <path d="M67.4441,94.9776A2.585,2.585,0,0,1,68.46,96.8229a2.9266,2.9266,0,0,1-2.4654,3.2153,2.6868,2.6868,0,0,1-3.1073-2.3823,2.814,2.814,0,0,1,.6015-2.0912,2.8427,2.8427,0,0,1,1.8759-1.14A2.6453,2.6453,0,0,1,67.4441,94.9776Z" fill="#fdfdfb" stroke="#f9f9f9" stroke-width="0.25"/>
        <path d="M36.0373,160.3574a2.5876,2.5876,0,0,1,1.7144,1.2245,2.9257,2.9257,0,0,1-.8316,3.965,2.6046,2.6046,0,0,1-2.08.43,2.6332,2.6332,0,0,1-1.7523-1.2324,3.0024,3.0024,0,0,1,.8351-3.9849A2.64,2.64,0,0,1,36.0373,160.3574Z" fill="#fdfdfb" stroke="#f9f9f9" stroke-width="0.25"/>
        <path d="M35.9544,232.9991a2.5847,2.5847,0,0,1,2.0737.368,2.927,2.927,0,0,1,.9561,3.9356,2.6056,2.6056,0,0,1-1.6941,1.2838,2.6333,2.6333,0,0,1-2.1113-.359,2.81,2.81,0,0,1-1.25-1.7809,2.8446,2.8446,0,0,1,.2893-2.1762A2.6434,2.6434,0,0,1,35.9544,232.9991Z" fill="#fdfdfb" stroke="#f9f9f9" stroke-width="0.25"/>
        <path d="M67.1308,298.6a2.5789,2.5789,0,0,1,2.0273-.5642,2.9268,2.9268,0,0,1,2.5649,3.1364,2.604,2.604,0,0,1-.9725,1.8884,2.6313,2.6313,0,0,1-2.0593.59,3.0037,3.0037,0,0,1-2.5761-3.1532A2.6373,2.6373,0,0,1,67.1308,298.6Z" fill="#fdfdfb" stroke="#f9f9f9" stroke-width="0.25"/>
      </g>
    </g>
    <g id="Layer_2-2" data-name="Layer 2">
      <g>
        <rect x="147.829" y="172.6733" width="152.6381" height="8.3267" fill="none" stroke="#f9f9f9" stroke-miterlimit="10" stroke-width="2"/>
        <rect x="142.5149" y="177.8063" width="5.314" height="39.018" fill="none" stroke="#f9f9f9" stroke-miterlimit="10" stroke-width="2"/>
        <path d="M142.5149,177.8063H71.4857s24.0546,47.02,71.0292,39.018Z" fill="none" stroke="#f9f9f9" stroke-miterlimit="10" stroke-width="2"/>
        <path d="M147.829,216.8243s19.348-3.3369,20.9581,9.3623-3.68,20.9925-32.4338,28.5084l-9.4311,15.1192" fill="none" stroke="#f9f9f9" stroke-miterlimit="10" stroke-width="2"/>
        <rect x="127.0863" y="269.8142" width="32.9598" height="12.256" fill="none" stroke="#f9f9f9" stroke-miterlimit="10" stroke-width="2"/>
        <rect x="226.3432" y="269.8142" width="32.8456" height="12.256" fill="none" stroke="#f9f9f9" stroke-miterlimit="10" stroke-width="2"/>
        <path d="M160.0461,269.8142s32.86-45.26,66.2971,0v12.0289a.166.166,0,0,1-.2439.1654c-2.7151-1.7159-27.9033-16.4944-65.8.0472a.1886.1886,0,0,1-.2534-.1926Z" fill="none" stroke="#f9f9f9" stroke-miterlimit="10" stroke-width="2"/>
        <path d="M164.7758,241.5362s-1.2672,19.7364-37.8536,28.278" fill="none" stroke="#f9f9f9" stroke-miterlimit="10" stroke-width="2"/>
        <path d="M226.3432,241.2259s2.1259,21.6962,32.7153,28.4987a.2443.2443,0,0,0,.2521-.3395L254.4234,255.98l-16.4765-6.281c-28.5733-13.5655-9.2986-35.1413-9.2986-35.1413,19.6969-19.202,61.44-19.2038,61.44-19.2038C299.227,195.1513,296.5533,181,296.5533,181" fill="none" stroke="#f9f9f9" stroke-miterlimit="10" stroke-width="2"/>
        <path d="M71.4857,177.8063s18.5135,7.5549,39.522,7.5549c0,0,21.253-3.7774,31.5072-7.5549" fill="none" stroke="#f9f9f9" stroke-miterlimit="10" stroke-width="2"/>
      </g>
    </g>
    <g id="Layer_4" data-name="Layer 4">
      <g>
        <path d="M131.5235,312.7238l-2.43-.0327a3.54,3.54,0,0,0-.3188-1.6846,3.1046,3.1046,0,0,0-2.918-1.4292,1.8039,1.8039,0,0,0-1.3569.8965q-.6161,1.0466.6259,2.6372l1.14,1.4555a7.3509,7.3509,0,0,1,1.6372,3.2754,4.3778,4.3778,0,0,1-.625,2.9786,4.9715,4.9715,0,0,1-3.2842,2.455,5.559,5.559,0,0,1-4.1807-.7158,5.4334,5.4334,0,0,1-2.5493-2.9824,5.8052,5.8052,0,0,1,.2749-4.0142l2.5562.856a4.1965,4.1965,0,0,0-.4854,2.0576,3.0543,3.0543,0,0,0,3.6177,2.4653,2.6578,2.6578,0,0,0,1.7012-1.3046,2.6993,2.6993,0,0,0,.3291-.835,2.2314,2.2314,0,0,0,.001-.8589,3.4785,3.4785,0,0,0-.3389-.9346,7.5392,7.5392,0,0,0-.6768-1.0532l-1.0971-1.418q-2.3218-3.0366-.917-5.4253a3.9325,3.9325,0,0,1,2.8662-1.94,5.5011,5.5011,0,0,1,3.8306.7827A5.19,5.19,0,0,1,131.5235,312.7238Z" fill="#f9f9f9" stroke="#f9f9f9" stroke-width="0.25"/>
        <path d="M140.3531,314.2619l-7.0654,15.0058-2.3545-1.1079,7.0649-15.0068Z" fill="#f9f9f9" stroke="#f9f9f9" stroke-width="0.25"/>
        <path d="M140.5787,332.527l5.4863-15.6519,3.4155,1.1958a13.6683,13.6683,0,0,1,3.7163,1.8267,8.2442,8.2442,0,0,1-1.958,14.1343,8.226,8.226,0,0,1-3.3061.5835,13.8484,13.8484,0,0,1-3.98-.9063Zm3.2353-1.3589,1.1065.3872a10.1454,10.1454,0,0,0,2.8691.63,5.9832,5.9832,0,0,0,2.3765-.43,5.5692,5.5692,0,0,0,3.2666-3.5112,5.6556,5.6556,0,0,0-.3286-4.8047,7.3827,7.3827,0,0,0-4.2539-3.0962l-1.107-.3882Z" fill="#f9f9f9" stroke="#f9f9f9" stroke-width="0.25"/>
        <path d="M172.5923,326.8688l-6.76-1.4605-.8418,3.8951,6.5635,1.4179-.4971,2.2994-6.563-1.417-1.17,5.4174,6.76,1.4595-.4966,2.3-9.3042-2.01,3.5019-16.2129,9.3037,2.01Z" fill="#f9f9f9" stroke="#f9f9f9" stroke-width="0.25"/>
        <path d="M177.0577,342.046l1.4067-17.6577L190,338.0016l.9145-11.4907,2.5952.2065-1.3969,17.541-11.5376-13.5815-.9219,11.5762Z" fill="#f9f9f9" stroke="#f9f9f9" stroke-width="0.25"/>
        <path d="M213.3824,327.8766l-2.958.3794,1.12-2.5049,4.1221-.5288,2.1108,16.4517-2.5825.331Z" fill="#f9f9f9" stroke="#f9f9f9" stroke-width="0.25"/>
        <path d="M230.1856,339.9928l-2.1748-.8838,2.7559-6.2129c-.211.0806-.3907.1446-.5391.1949s-.27.0869-.3652.1093a4.9389,4.9389,0,0,1-3.877-.6538,5.0149,5.0149,0,0,1-2.33-3.2212,5.2257,5.2257,0,0,1,.7325-4.1943,5.6674,5.6674,0,0,1,3.5761-2.5322,5.8457,5.8457,0,0,1,4.3623.6152,4.9716,4.9716,0,0,1,2.5733,3.273,7.0949,7.0949,0,0,1-.6817,4.4594ZM226.0792,328.56a3.0069,3.0069,0,0,0,1.4482,1.9741,3.356,3.356,0,0,0,4.4893-1.061,3.0538,3.0538,0,0,0-1.0323-4.3267,3.3579,3.3579,0,0,0-4.4765,1.0689A2.9274,2.9274,0,0,0,226.0792,328.56Z" fill="#f9f9f9" stroke="#f9f9f9" stroke-width="0.25"/>
        <path d="M247.68,334.9274l-2.2646-.6157,1.9883-6.4981q-.2988.156-.5127.2578c-.1406.0684-.2578.1182-.3477.1519a4.9345,4.9345,0,0,1-3.9277-.1831,5.0109,5.0109,0,0,1-2.7012-2.917,5.2273,5.2273,0,0,1,.2227-4.2525,5.6582,5.6582,0,0,1,3.247-2.9428,5.8362,5.8362,0,0,1,4.4043.0859,4.9732,4.9732,0,0,1,2.9473,2.94,7.0954,7.0954,0,0,1-.1406,4.5092Zm-5.4511-10.8565a3,3,0,0,0,1.6738,1.7852,3.3566,3.3566,0,0,0,4.33-1.5923,3.0527,3.0527,0,0,0-1.544-4.17,3.3561,3.3561,0,0,0-4.3164,1.5986A2.9274,2.9274,0,0,0,242.2286,324.0709Z" fill="#f9f9f9" stroke="#f9f9f9" stroke-width="0.25"/>
        <path d="M261.1241,312.85l-7.5869,3.8609-1.0625-2.0864,11.46-5.8335-1.916,20.2251-2.4121-.1836Z" fill="#f9f9f9" stroke="#f9f9f9" stroke-width="0.25"/>
      </g>
    </g>
  </g>
</svg>
