<svg xmlns="http://www.w3.org/2000/svg" viewBox="0 0 1495.6726 734.8645">
  <title>logoKS</title>
  <g id="Layer_1" data-name="Layer 1">
    <circle cx="798.2238" cy="303.6586" r="192.9412" fill="none" stroke="#f9f9f9" stroke-miterlimit="10" stroke-width="3"/>
    <circle cx="798.2238" cy="303.6586" r="181.0373" fill="none" stroke="#f9f9f9" stroke-miterlimit="10" stroke-width="8"/>
    <g>
      <path d="M1247.1148,645.2031l-2.9961-.4687a4.4094,4.4094,0,0,0-.0977-2.1358,3.8737,3.8737,0,0,0-3.3535-2.28,2.2531,2.2531,0,0,0-1.834.87q-.9433,1.1835.31,3.3662l1.1524,1.999a9.1953,9.1953,0,0,1,1.4472,4.335,5.4646,5.4646,0,0,1-1.2969,3.5693,6.1967,6.1967,0,0,1-4.4892,2.4541,6.9376,6.9376,0,0,1-5.0391-1.6191,6.7748,6.7748,0,0,1-2.624-4.1319,7.2454,7.2454,0,0,1,1.0449-4.91l3.0078,1.5068a5.2369,5.2369,0,0,0-.9619,2.4561,3.4337,3.4337,0,0,0,1.4531,2.874,3.4768,3.4768,0,0,0,2.5831.8086,3.3173,3.3173,0,0,0,2.331-1.3125,3.3569,3.3569,0,0,0,.5527-.9736,2.7862,2.7862,0,0,0,.1524-1.0625,4.3227,4.3227,0,0,0-.2539-1.2139,9.219,9.219,0,0,0-.6514-1.419l-1.1045-1.9453q-2.3364-4.16-.18-6.8623a4.9051,4.9051,0,0,1,3.8819-1.8935,6.8608,6.8608,0,0,1,4.5937,1.6406A6.473,6.473,0,0,1,1247.1148,645.2031Z" transform="translate(-101.1886 45.1292)" fill="#fdfdfb" stroke="#f9f9f9" stroke-width="0.25"/>
      <path d="M1257.732,648.3613l-10.9346,17.57-2.7578-1.7168,10.9346-17.57Z" transform="translate(-101.1886 45.1292)" fill="#fdfdfb" stroke="#f9f9f9" stroke-width="0.25"/>
      <path d="M1255.72,671.1621l8.5556-18.8447,4.1123,1.8672a17.1013,17.1013,0,0,1,4.416,2.6816,10.2873,10.2873,0,0,1-4.0029,17.35,10.2581,10.2581,0,0,1-4.1728.3574,17.2393,17.2393,0,0,1-4.8457-1.5673Zm4.1709-1.33,1.333.6045a12.6951,12.6951,0,0,0,3.4961,1.1026,7.4763,7.4763,0,0,0,3.0009-.2725,6.9475,6.9475,0,0,0,4.45-4,7.0633,7.0633,0,0,0,.125-6.0088q-1.1616-2.6016-4.9443-4.3193l-1.332-.6055Z" transform="translate(-101.1886 45.1292)" fill="#fdfdfb" stroke="#f9f9f9" stroke-width="0.25"/>
      <path d="M1296.148,667.0879l-8.3193-2.291-1.32,4.7939,8.0772,2.2246-.7793,2.8311-8.0772-2.2246-1.8369,6.6689,8.3194,2.291-.7793,2.83-11.4512-3.1543,5.4961-19.9531,11.45,3.1543Z" transform="translate(-101.1886 45.1292)" fill="#fdfdfb" stroke="#f9f9f9" stroke-width="0.25"/>
      <path d="M1301.1236,686.2832l2.1992-21.9932,14.0478,17.2725,1.4307-14.3115,3.2324.3242-2.1855,21.8467-14.0508-17.2344-1.4414,14.4189Z" transform="translate(-101.1886 45.1292)" fill="#fdfdfb" stroke="#f9f9f9" stroke-width="0.25"/>
      <path d="M1346.49,668.5684l-3.6709.6123,1.2793-3.1758,5.1152-.8526,3.4072,20.4131-3.2041.5332Z" transform="translate(-101.1886 45.1292)" fill="#fdfdfb" stroke="#f9f9f9" stroke-width="0.25"/>
      <path d="M1368.3433,682.5654l-2.7822-.916,2.9062-7.9678c-.2558.1182-.4746.2139-.6552.2891s-.33.13-.4444.167a6.1645,6.1645,0,0,1-4.8828-.4873,6.2642,6.2642,0,0,1-3.1738-3.8135,6.5179,6.5179,0,0,1,.5586-5.2822,7.0582,7.0582,0,0,1,4.2383-3.4561,7.2993,7.2993,0,0,1,5.4824.3975,6.2109,6.2109,0,0,1,3.48,3.8574,8.87,8.87,0,0,1-.4716,5.61Zm-6.0781-13.8857a3.7481,3.7481,0,0,0,1.9678,2.334,4.1887,4.1887,0,0,0,5.5009-1.6992,3.81,3.81,0,0,0-1.65-5.2979,4.189,4.189,0,0,0-5.4834,1.708A3.6494,3.6494,0,0,0,1362.2652,668.68Z" transform="translate(-101.1886 45.1292)" fill="#fdfdfb" stroke="#f9f9f9" stroke-width="0.25"/>
      <path d="M1389.9761,674.3545l-2.89-.4815,1.6591-8.3164c-.2343.1543-.4355.2832-.6025.3848s-.3066.1787-.4141.2324a6.1617,6.1617,0,0,1-4.8994.2627,6.2659,6.2659,0,0,1-3.7177-3.2861,6.5234,6.5234,0,0,1-.252-5.3076,7.06,7.06,0,0,1,3.6631-4.0586,7.2863,7.2863,0,0,1,5.48-.4414,6.2061,6.2061,0,0,1,4.0263,3.2822,8.8567,8.8567,0,0,1,.3877,5.6152Zm-8.1211-12.7988a3.7484,3.7484,0,0,0,2.3008,2.0078,4.187,4.187,0,0,0,5.1777-2.5166,3.8083,3.8083,0,0,0-2.4375-4.9844,4.1861,4.1861,0,0,0-5.1591,2.5225A3.6509,3.6509,0,0,0,1381.855,661.5557Z" transform="translate(-101.1886 45.1292)" fill="#fdfdfb" stroke="#f9f9f9" stroke-width="0.25"/>
      <path d="M1403.61,645.0186l-8.7734,5.9882-1.6475-2.413,13.252-9.0459.8545,25.3339-3.0137.16Z" transform="translate(-101.1886 45.1292)" fill="#fdfdfb" stroke="#f9f9f9" stroke-width="0.25"/>
    </g>
    <g>
      <path d="M1345.646,600.3145a2.3538,2.3538,0,0,1,1.6338-.9991,2.6594,2.6594,0,0,1,3.0225,2.1026,2.4394,2.4394,0,0,1-2.0313,2.9218,2.7307,2.7307,0,0,1-3.039-2.1132A2.4018,2.4018,0,0,1,1345.646,600.3145Z" transform="translate(-101.1886 45.1292)" fill="#fdfdfb" stroke="#f9f9f9" stroke-width="0.25"/>
      <path d="M1406.45,626.0938a2.3474,2.3474,0,0,1,1.0391-1.6084,2.6637,2.6637,0,0,1,3.6358.5878,2.44,2.44,0,0,1-.5684,3.5147,2.55,2.55,0,0,1-1.9326.418,2.5758,2.5758,0,0,1-1.7217-1.01A2.4006,2.4006,0,0,1,1406.45,626.0938Z" transform="translate(-101.1886 45.1292)" fill="#fdfdfb" stroke="#f9f9f9" stroke-width="0.25"/>
      <path d="M1472.38,623.1943a2.3474,2.3474,0,0,1,.249-1.8984,2.6588,2.6588,0,0,1,3.5352-1.0313,2.4409,2.4409,0,0,1,.9961,3.4161,2.73,2.73,0,0,1-3.5527,1.0371A2.4043,2.4043,0,0,1,1472.38,623.1943Z" transform="translate(-101.1886 45.1292)" fill="#fdfdfb" stroke="#f9f9f9" stroke-width="0.25"/>
      <path d="M1530.7857,591.9844a2.3507,2.3507,0,0,1-.6152-1.8135,2.6584,2.6584,0,0,1,2.7167-2.4854,2.44,2.44,0,0,1,2.4024,2.625,2.73,2.73,0,0,1-2.7305,2.4991A2.3956,2.3956,0,0,1,1530.7857,591.9844Z" transform="translate(-101.1886 45.1292)" fill="#fdfdfb" stroke="#f9f9f9" stroke-width="0.25"/>
      <path d="M1569.8335,538.918a2.3534,2.3534,0,0,1-1.3232-1.3838,2.66,2.66,0,0,1,1.4121-3.4014,2.44,2.44,0,0,1,3.2871,1.3662,2.55,2.55,0,0,1-.039,1.9766,2.5764,2.5764,0,0,1-1.3809,1.4414A2.3994,2.3994,0,0,1,1569.8335,538.918Z" transform="translate(-101.1886 45.1292)" fill="#fdfdfb" stroke="#f9f9f9" stroke-width="0.25"/>
      <path d="M1582.2037,474.0811a2.3486,2.3486,0,0,1-1.7891-.6807,2.6587,2.6587,0,0,1-.1865-3.6777,2.4446,2.4446,0,0,1,3.5547-.1807,2.7334,2.7334,0,0,1,.1865,3.6982A2.4025,2.4025,0,0,1,1582.2037,474.0811Z" transform="translate(-101.1886 45.1292)" fill="#fdfdfb" stroke="#f9f9f9" stroke-width="0.25"/>
      <path d="M1565.4507,410.1733a2.3481,2.3481,0,0,1-1.9072.1612,2.6593,2.6593,0,0,1-1.7607-3.2354,2.44,2.44,0,0,1,3.1269-1.7,2.7288,2.7288,0,0,1,1.7686,3.25A2.4012,2.4012,0,0,1,1565.4507,410.1733Z" transform="translate(-101.1886 45.1292)" fill="#fdfdfb" stroke="#f9f9f9" stroke-width="0.25"/>
      <path d="M1522.7847,359.8047a2.3477,2.3477,0,0,1-1.6533.9643,2.6589,2.6589,0,0,1-2.9785-2.1665,2.3665,2.3665,0,0,1,.4189-1.8837,2.3908,2.3908,0,0,1,1.6738-.9942,2.5527,2.5527,0,0,1,1.9141.499,2.5792,2.5792,0,0,1,1.08,1.6787A2.4054,2.4054,0,0,1,1522.7847,359.8047Z" transform="translate(-101.1886 45.1292)" fill="#fdfdfb" stroke="#f9f9f9" stroke-width="0.25"/>
      <path d="M1462.5494,332.7568a2.3514,2.3514,0,0,1-1.0733,1.585,2.6619,2.6619,0,0,1-3.623-.6646,2.4392,2.4392,0,0,1,.6425-3.5,2.7308,2.7308,0,0,1,3.64.667A2.4006,2.4006,0,0,1,1462.5494,332.7568Z" transform="translate(-101.1886 45.1292)" fill="#fdfdfb" stroke="#f9f9f9" stroke-width="0.25"/>
      <path d="M1396.5455,334.2778a2.353,2.353,0,0,1-.2891,1.8931,2.66,2.66,0,0,1-3.5557.9565,2.4389,2.4389,0,0,1-.9248-3.4355,2.5552,2.5552,0,0,1,1.59-1.1777,2.5834,2.5834,0,0,1,1.9843.2148A2.4047,2.4047,0,0,1,1396.5455,334.2778Z" transform="translate(-101.1886 45.1292)" fill="#fdfdfb" stroke="#f9f9f9" stroke-width="0.25"/>
      <path d="M1337.5718,364.2466a2.3525,2.3525,0,0,1,.5557,1.831,2.66,2.66,0,0,1-2.7959,2.398,2.4411,2.4411,0,0,1-2.3164-2.7022,2.73,2.73,0,0,1,2.8095-2.4091A2.401,2.401,0,0,1,1337.5718,364.2466Z" transform="translate(-101.1886 45.1292)" fill="#fdfdfb" stroke="#f9f9f9" stroke-width="0.25"/>
      <path d="M1297.357,416.5024a2.3486,2.3486,0,0,1,1.2939,1.4107,2.6575,2.6575,0,0,1-1.4834,3.37,2.37,2.37,0,0,1-1.9306-.0068,2.3958,2.3958,0,0,1-1.3272-1.4253,2.7312,2.7312,0,0,1,1.4912-3.3887A2.3985,2.3985,0,0,1,1297.357,416.5024Z" transform="translate(-101.1886 45.1292)" fill="#fdfdfb" stroke="#f9f9f9" stroke-width="0.25"/>
      <path d="M1283.6412,481.1a2.3417,2.3417,0,0,1,1.7734.7168,2.659,2.659,0,0,1,.1113,3.6807,2.44,2.44,0,0,1-3.5566.1074,2.73,2.73,0,0,1-.1113-3.7A2.4016,2.4016,0,0,1,1283.6412,481.1Z" transform="translate(-101.1886 45.1292)" fill="#fdfdfb" stroke="#f9f9f9" stroke-width="0.25"/>
      <path d="M1299.05,545.3047a2.3509,2.3509,0,0,1,1.91-.1211,2.6615,2.6615,0,0,1,1.6914,3.2715,2.37,2.37,0,0,1-1.2188,1.498,2.3959,2.3959,0,0,1-1.9423.1377,2.7311,2.7311,0,0,1-1.7-3.2881A2.399,2.399,0,0,1,1299.05,545.3047Z" transform="translate(-101.1886 45.1292)" fill="#fdfdfb" stroke="#f9f9f9" stroke-width="0.25"/>
    </g>
    <g>
      <path d="M1357.78,225.5615a2.353,2.353,0,0,1,1.6338-.9985,2.6573,2.6573,0,0,1,3.0225,2.1025,2.4386,2.4386,0,0,1-2.0323,2.9214,2.7319,2.7319,0,0,1-3.038-2.1123A2.4,2.4,0,0,1,1357.78,225.5615Z" transform="translate(-101.1886 45.1292)" fill="#fdfdfb" stroke="#f9f9f9" stroke-width="0.25"/>
      <path d="M1418.5835,251.3413a2.35,2.35,0,0,1,1.0391-1.6079,2.662,2.662,0,0,1,3.6357.5879,2.3682,2.3682,0,0,1,.4776,1.8716,2.3978,2.3978,0,0,1-1.0449,1.643,2.7343,2.7343,0,0,1-3.6543-.5918A2.3978,2.3978,0,0,1,1418.5835,251.3413Z" transform="translate(-101.1886 45.1292)" fill="#fdfdfb" stroke="#f9f9f9" stroke-width="0.25"/>
      <path d="M1484.5152,248.4424a2.3472,2.3472,0,0,1,.248-1.8985,2.6592,2.6592,0,0,1,3.5352-1.0317,2.4422,2.4422,0,0,1,.9961,3.4165,2.728,2.728,0,0,1-3.5528,1.0371A2.393,2.393,0,0,1,1484.5152,248.4424Z" transform="translate(-101.1886 45.1292)" fill="#fdfdfb" stroke="#f9f9f9" stroke-width="0.25"/>
      <path d="M1542.92,217.2329a2.3541,2.3541,0,0,1-.6153-1.8125,2.66,2.66,0,0,1,2.7168-2.4863,2.4392,2.4392,0,0,1,2.4024,2.626,2.7315,2.7315,0,0,1-2.73,2.4975A2.4,2.4,0,0,1,1542.92,217.2329Z" transform="translate(-101.1886 45.1292)" fill="#fdfdfb" stroke="#f9f9f9" stroke-width="0.25"/>
      <path d="M1581.9683,164.1665a2.35,2.35,0,0,1-1.3242-1.3838,2.6636,2.6636,0,0,1,1.4121-3.4014,2.4426,2.4426,0,0,1,3.2891,1.3663,2.7363,2.7363,0,0,1-1.42,3.4174A2.3956,2.3956,0,0,1,1581.9683,164.1665Z" transform="translate(-101.1886 45.1292)" fill="#fdfdfb" stroke="#f9f9f9" stroke-width="0.25"/>
      <path d="M1594.3374,99.33a2.3551,2.3551,0,0,1-1.789-.68,2.6612,2.6612,0,0,1-.1856-3.6787,2.4439,2.4439,0,0,1,3.5547-.1807,2.734,2.734,0,0,1,.1875,3.6978A2.4072,2.4072,0,0,1,1594.3374,99.33Z" transform="translate(-101.1886 45.1292)" fill="#fdfdfb" stroke="#f9f9f9" stroke-width="0.25"/>
      <path d="M1577.5855,35.4224a2.3524,2.3524,0,0,1-1.9082.1606,2.6617,2.6617,0,0,1-1.76-3.2353,2.44,2.44,0,0,1,3.127-1.7,2.5543,2.5543,0,0,1,1.5156,1.271,2.58,2.58,0,0,1,.2539,1.98A2.4062,2.4062,0,0,1,1577.5855,35.4224Z" transform="translate(-101.1886 45.1292)" fill="#fdfdfb" stroke="#f9f9f9" stroke-width="0.25"/>
      <path d="M1534.92-14.9468a2.3481,2.3481,0,0,1-1.6524.9644,2.5688,2.5688,0,0,1-1.9258-.4839,2.5624,2.5624,0,0,1-1.0527-1.6826,2.3655,2.3655,0,0,1,.418-1.8838,2.3909,2.3909,0,0,1,1.6738-.9946,2.558,2.558,0,0,1,1.9141.4985,2.5748,2.5748,0,0,1,1.08,1.6787A2.3962,2.3962,0,0,1,1534.92-14.9468Z" transform="translate(-101.1886 45.1292)" fill="#fdfdfb" stroke="#f9f9f9" stroke-width="0.25"/>
      <path d="M1474.6851-41.9956a2.3464,2.3464,0,0,1-1.0742,1.585,2.5617,2.5617,0,0,1-1.9453.3964,2.5738,2.5738,0,0,1-1.6778-1.06,2.383,2.383,0,0,1-.4375-1.8809,2.3868,2.3868,0,0,1,1.08-1.62,2.5539,2.5539,0,0,1,1.9414-.3794,2.5762,2.5762,0,0,1,1.6992,1.0454A2.4009,2.4009,0,0,1,1474.6851-41.9956Z" transform="translate(-101.1886 45.1292)" fill="#fdfdfb" stroke="#f9f9f9" stroke-width="0.25"/>
      <path d="M1408.6812-40.4746a2.3612,2.3612,0,0,1-.2891,1.8931,2.5652,2.5652,0,0,1-1.5859,1.1938,2.5667,2.5667,0,0,1-1.9707-.2363,2.3731,2.3731,0,0,1-1.2031-1.51,2.3852,2.3852,0,0,1,.2793-1.9262,2.557,2.557,0,0,1,1.5888-1.1778,2.5862,2.5862,0,0,1,1.9854.2149A2.4072,2.4072,0,0,1,1408.6812-40.4746Z" transform="translate(-101.1886 45.1292)" fill="#fdfdfb" stroke="#f9f9f9" stroke-width="0.25"/>
      <path d="M1349.7066-10.5063a2.35,2.35,0,0,1,.5566,1.832,2.5655,2.5655,0,0,1-.916,1.76,2.5686,2.5686,0,0,1-1.8809.6368,2.3717,2.3717,0,0,1-1.7363-.8433,2.391,2.391,0,0,1-.58-1.8594,2.5584,2.5584,0,0,1,.9278-1.7471,2.5849,2.5849,0,0,1,1.8828-.6621A2.4051,2.4051,0,0,1,1349.7066-10.5063Z" transform="translate(-101.1886 45.1292)" fill="#fdfdfb" stroke="#f9f9f9" stroke-width="0.25"/>
      <path d="M1309.4917,41.749a2.3525,2.3525,0,0,1,1.295,1.4112,2.66,2.66,0,0,1-1.4844,3.3706,2.3687,2.3687,0,0,1-1.9307-.0083,2.3946,2.3946,0,0,1-1.3271-1.4253,2.7295,2.7295,0,0,1,1.4912-3.3877A2.4,2.4,0,0,1,1309.4917,41.749Z" transform="translate(-101.1886 45.1292)" fill="#fdfdfb" stroke="#f9f9f9" stroke-width="0.25"/>
      <path d="M1295.7749,106.3467a2.35,2.35,0,0,1,1.7754.7168,2.6609,2.6609,0,0,1,.1114,3.68,2.3688,2.3688,0,0,1-1.7481.8237,2.3937,2.3937,0,0,1-1.8105-.7158,2.5553,2.5553,0,0,1-.7774-1.8189,2.5866,2.5866,0,0,1,.666-1.8813A2.4034,2.4034,0,0,1,1295.7749,106.3467Z" transform="translate(-101.1886 45.1292)" fill="#fdfdfb" stroke="#f9f9f9" stroke-width="0.25"/>
      <path d="M1311.1851,170.5522a2.3449,2.3449,0,0,1,1.9092-.121,2.6608,2.6608,0,0,1,1.6924,3.2714,2.3674,2.3674,0,0,1-1.22,1.4971,2.3921,2.3921,0,0,1-1.9423.1377,2.7307,2.7307,0,0,1-1.6993-3.2886A2.3982,2.3982,0,0,1,1311.1851,170.5522Z" transform="translate(-101.1886 45.1292)" fill="#fdfdfb" stroke="#f9f9f9" stroke-width="0.25"/>
    </g>
    <g>
      <path d="M830.8968,409.5364a2.5885,2.5885,0,0,1,1.5684-1.4059,2.9229,2.9229,0,0,1,3.6888,1.672,2.6824,2.6824,0,0,1-1.6161,3.5654,3.0051,3.0051,0,0,1-3.7076-1.6794A2.6408,2.6408,0,0,1,830.8968,409.5364Z" transform="translate(-101.1886 45.1292)" fill="#f9f9f9"/>
      <path d="M901.8126,425.3031a2.5848,2.5848,0,0,1,.8035-1.9465,2.9282,2.9282,0,0,1,4.05-.0889,2.605,2.605,0,0,1,.89,1.93,2.6375,2.6375,0,0,1-.8028,1.9858,3.0078,3.0078,0,0,1-4.0711.0883A2.638,2.638,0,0,1,901.8126,425.3031Z" transform="translate(-101.1886 45.1292)" fill="#f9f9f9"/>
      <path d="M972.5586,409.0234a2.5816,2.5816,0,0,1-.11-2.1032,2.9249,2.9249,0,0,1,3.6186-1.8208,2.6863,2.6863,0,0,1,1.7587,3.4973,3.001,3.001,0,0,1-3.6366,1.83A2.6322,2.6322,0,0,1,972.5586,409.0234Z" transform="translate(-101.1886 45.1292)" fill="#f9f9f9"/>
      <path d="M1029.5177,363.6183a2.59,2.59,0,0,1-1.0269-1.8381,2.9263,2.9263,0,0,1,2.4433-3.2313,2.6831,2.6831,0,0,1,3.1224,2.3619,3.0045,3.0045,0,0,1-2.4559,3.2461A2.64,2.64,0,0,1,1029.5177,363.6183Z" transform="translate(-101.1886 45.1292)" fill="#f9f9f9"/>
      <path d="M1061.1811,298.4273a2.5856,2.5856,0,0,1-1.7084-1.2329,2.93,2.93,0,0,1,.85-3.9611,2.6869,2.6869,0,0,1,3.8305.8223,3.01,3.01,0,0,1-.8548,3.98A2.635,2.635,0,0,1,1061.1811,298.4273Z" transform="translate(-101.1886 45.1292)" fill="#f9f9f9"/>
      <path d="M1061.6364,225.8224a2.59,2.59,0,0,1-2.0708-.3786,2.9273,2.9273,0,0,1-.9341-3.9426,2.6881,2.6881,0,0,1,3.8094-.904,3.0076,3.0076,0,0,1,.94,3.9628A2.6477,2.6477,0,0,1,1061.6364,225.8224Z" transform="translate(-101.1886 45.1292)" fill="#f9f9f9"/>
      <path d="M1030.7742,160.0276a2.5872,2.5872,0,0,1-2.0323.5542,2.9276,2.9276,0,0,1-2.5486-3.1491,2.6842,2.6842,0,0,1,3.0438-2.4621,2.81,2.81,0,0,1,1.893,1.0728,2.8382,2.8382,0,0,1,.6692,2.0908A2.6465,2.6465,0,0,1,1030.7742,160.0276Z" transform="translate(-101.1886 45.1292)" fill="#f9f9f9"/>
      <path d="M974.5774,114.0447a2.5826,2.5826,0,0,1-1.5952,1.3727,2.9233,2.9233,0,0,1-3.654-1.75,2.6018,2.6018,0,0,1,.0766-2.1211,2.63,2.63,0,0,1,1.6124-1.41,3.0056,3.0056,0,0,1,3.6731,1.7584A2.6358,2.6358,0,0,1,974.5774,114.0447Z" transform="translate(-101.1886 45.1292)" fill="#f9f9f9"/>
      <path d="M904.0245,96.7917a2.5807,2.5807,0,0,1-.8461,1.9287,2.9266,2.9266,0,0,1-4.0516.0045,2.6854,2.6854,0,0,1-.0027-3.9149,3.0038,3.0038,0,0,1,4.0711-.0053A2.6415,2.6415,0,0,1,904.0245,96.7917Z" transform="translate(-101.1886 45.1292)" fill="#f9f9f9"/>
      <path d="M832.9257,111.5952a2.5975,2.5975,0,0,1,.0647,2.1056,2.9263,2.9263,0,0,1-3.6566,1.7448,2.6852,2.6852,0,0,1-1.6845-3.5334,2.8127,2.8127,0,0,1,1.484-1.5908,2.8451,2.8451,0,0,1,2.1906-.1634A2.6481,2.6481,0,0,1,832.9257,111.5952Z" transform="translate(-101.1886 45.1292)" fill="#f9f9f9"/>
      <path d="M775.1022,155.7713a2.5854,2.5854,0,0,1,.9674,1.8709,2.9267,2.9267,0,0,1-2.5478,3.1506,2.687,2.687,0,0,1-3.0446-2.4619,2.8136,2.8136,0,0,1,.6553-2.0749,2.8424,2.8424,0,0,1,1.9048-1.0916A2.6453,2.6453,0,0,1,775.1022,155.7713Z" transform="translate(-101.1886 45.1292)" fill="#f9f9f9"/>
      <path d="M742.0157,220.3173a2.5882,2.5882,0,0,1,1.6822,1.2684,2.9258,2.9258,0,0,1-.9339,3.9422,2.6048,2.6048,0,0,1-2.09.3759,2.6335,2.6335,0,0,1-1.72-1.2773,3.0024,3.0024,0,0,1,.9378-3.962A2.64,2.64,0,0,1,742.0157,220.3173Z" transform="translate(-101.1886 45.1292)" fill="#f9f9f9"/>
      <path d="M740.0549,292.9326a2.5845,2.5845,0,0,1,2.0635.4215,2.9271,2.9271,0,0,1,.8541,3.9589,2.6054,2.6054,0,0,1-1.7268,1.24,2.6334,2.6334,0,0,1-2.1013-.4134,2.81,2.81,0,0,1-1.2035-1.8126,2.8447,2.8447,0,0,1,.3454-2.168A2.6437,2.6437,0,0,1,740.0549,292.9326Z" transform="translate(-101.1886 45.1292)" fill="#f9f9f9"/>
      <path d="M769.525,359.3171a2.579,2.579,0,0,1,2.0412-.5116,2.9269,2.9269,0,0,1,2.483,3.2017,2.6041,2.6041,0,0,1-1.021,1.8626,2.6314,2.6314,0,0,1-2.0738.5362,3.0037,3.0037,0,0,1-2.4938-3.2188A2.6377,2.6377,0,0,1,769.525,359.3171Z" transform="translate(-101.1886 45.1292)" fill="#f9f9f9"/>
    </g>
  </g>
  <g id="Layer_2" data-name="Layer 2">
    <g>
      <rect x="751.6116" y="270.9473" width="152.6381" height="8.3267" fill="none" stroke="#f9f9f9" stroke-miterlimit="10" stroke-width="2"/>
      <rect x="746.2975" y="276.0804" width="5.314" height="39.018" fill="none" stroke="#f9f9f9" stroke-miterlimit="10" stroke-width="2"/>
      <path d="M847.4861,230.9511H776.4569s24.0545,47.02,71.0292,39.018Z" transform="translate(-101.1886 45.1292)" fill="none" stroke="#f9f9f9" stroke-miterlimit="10" stroke-width="2"/>
      <path d="M931.9551,322.0939" transform="translate(-101.1886 45.1292)" fill="none" stroke="#f9f9f9" stroke-miterlimit="10" stroke-width="2"/>
      <path d="M931.9551,334.2748" transform="translate(-101.1886 45.1292)" fill="none" stroke="#f9f9f9" stroke-miterlimit="10" stroke-width="2"/>
      <path d="M866.1674,334.2748" transform="translate(-101.1886 45.1292)" fill="none" stroke="#f9f9f9" stroke-miterlimit="10" stroke-width="2"/>
      <path d="M865.9374,322.3531" transform="translate(-101.1886 45.1292)" fill="none" stroke="#f9f9f9" stroke-miterlimit="10" stroke-width="2"/>
      <path d="M852.8,269.9691s19.348-3.3369,20.9582,9.3623-3.68,20.9925-32.4338,28.5083l-9.4311,15.1193" transform="translate(-101.1886 45.1292)" fill="none" stroke="#f9f9f9" stroke-miterlimit="10" stroke-width="2"/>
      <rect x="730.8689" y="368.0882" width="32.9598" height="12.256" fill="none" stroke="#f9f9f9" stroke-miterlimit="10" stroke-width="2"/>
      <rect x="830.1258" y="368.0882" width="32.8456" height="12.256" fill="none" stroke="#f9f9f9" stroke-miterlimit="10" stroke-width="2"/>
      <path d="M865.0173,322.959s32.86-45.26,66.2971,0v12.0289a.166.166,0,0,1-.2439.1654c-2.7152-1.7159-27.9033-16.4944-65.8.0472a.1886.1886,0,0,1-.2534-.1926Z" transform="translate(-101.1886 45.1292)" fill="none" stroke="#f9f9f9" stroke-miterlimit="10" stroke-width="2"/>
      <path d="M869.747,294.681s-1.2672,19.7364-37.8536,28.278" transform="translate(-101.1886 45.1292)" fill="none" stroke="#f9f9f9" stroke-miterlimit="10" stroke-width="2"/>
      <path d="M931.3144,294.3707s2.1259,21.6962,32.7153,28.4987a.2443.2443,0,0,0,.2521-.3395l-4.8872-13.4056-16.4766-6.281c-28.5732-13.5655-9.2985-35.1414-9.2985-35.1414,19.6968-19.2019,61.4395-19.2037,61.4395-19.2037,9.1391-.2021,6.4654-14.3533,6.4654-14.3533" transform="translate(-101.1886 45.1292)" fill="none" stroke="#f9f9f9" stroke-miterlimit="10" stroke-width="2"/>
      <path d="M776.4569,230.9511s18.5135,7.5549,39.522,7.5549c0,0,21.253-3.7774,31.5072-7.5549" transform="translate(-101.1886 45.1292)" fill="none" stroke="#f9f9f9" stroke-miterlimit="10" stroke-width="2"/>
    </g>
  </g>
  <g id="Layer_4" data-name="Layer 4">
    <circle cx="194.4412" cy="311.2096" r="192.9412" fill="#fcfbfd" stroke="#020202" stroke-miterlimit="10" stroke-width="3"/>
    <circle cx="194.4412" cy="311.2096" r="181.0373" fill="#fdfdfb" stroke="#020202" stroke-miterlimit="10" stroke-width="8"/>
    <g>
      <path d="M220.1729,177.2124v-26.27h1.9624v15.9468l15.9307-15.9468h2.27l-11.3516,11.5068,11.9287,14.7632h-2.2319l-10.9668-13.6162-5.58,5.5132v8.103Z" transform="translate(-101.1886 45.1292)" fill="#050505" stroke="#050505" stroke-width="0.25"/>
      <path d="M248.9175,150.9424l10.39,23.9018,10.3891-23.9018h2.0782l-11.544,26.27h-1.8086l-11.5825-26.27Z" transform="translate(-101.1886 45.1292)" fill="#050505" stroke="#050505" stroke-width="0.25"/>
      <path d="M281.2017,177.2124v-26.27h1.9624v26.27Z" transform="translate(-101.1886 45.1292)" fill="#050505" stroke="#050505" stroke-width="0.25"/>
      <path d="M297.5166,154.4946v22.7178h-1.9624v-26.27h1.501l19.1626,23.125v-23.125h1.9629v26.27h-1.8086Z" transform="translate(-101.1886 45.1292)" fill="#050505" stroke="#050505" stroke-width="0.25"/>
      <path d="M330.5323,177.2124v-26.27h9.0815a14.4609,14.4609,0,0,1,5.6763,1.0361,11.4115,11.4115,0,0,1,4.0586,2.812,11.6261,11.6261,0,0,1,2.4238,4.1626,15.7479,15.7479,0,0,1,.8086,5.0874,15.3933,15.3933,0,0,1-.9043,5.42,11.344,11.344,0,0,1-6.6953,6.8081,14.5908,14.5908,0,0,1-5.3677.9434Zm20.0859-13.1719a13.7868,13.7868,0,0,0-.7305-4.57,10.2175,10.2175,0,0,0-2.1347-3.6074,9.7448,9.7448,0,0,0-3.4453-2.3677,12.1029,12.1029,0,0,0-4.6939-.8511h-7.1191V175.51h7.1191a12.1374,12.1374,0,0,0,4.7525-.8692,9.4863,9.4863,0,0,0,3.4433-2.4238,10.48,10.48,0,0,0,2.0977-3.6445A13.9707,13.9707,0,0,0,350.6182,164.0405Z" transform="translate(-101.1886 45.1292)" fill="#050505" stroke="#050505" stroke-width="0.25"/>
      <path d="M381.4024,175.51v1.7021h-18.2v-26.27h17.8545v1.7021H365.1641v10.3228h13.8916v1.6279H365.1641V175.51Z" transform="translate(-101.1886 45.1292)" fill="#050505" stroke="#050505" stroke-width="0.25"/>
    </g>
    <g>
      <path d="M217.5538,202.1841q.0681.4248.2382,1.1142a10.87,10.87,0,0,0,.4927,1.4849,12.1105,12.1105,0,0,0,.8164,1.6265,7.6458,7.6458,0,0,0,1.2066,1.5381,7.0678,7.0678,0,0,0,1.5131,1.2377,6.3493,6.3493,0,0,0,1.3941.6187,4.99,4.99,0,0,0,1.2578.2124q.5948.0183,1.105.0176a6.5551,6.5551,0,0,0,2.958-.5835,5.1761,5.1761,0,0,0,2.7544-3.2178,6.008,6.008,0,0,0,.272-1.644,3.6738,3.6738,0,0,0-.5953-2.1573,4.8317,4.8317,0,0,0-1.581-1.414,11.1281,11.1281,0,0,0-2.2437-.9551q-1.2582-.3882-2.5844-.7954a24.21,24.21,0,0,1-2.584-.9546,8.5225,8.5225,0,0,1-2.2437-1.4146,6.4173,6.4173,0,0,1-1.581-2.1391,7.5044,7.5044,0,0,1-.5952-3.1826,6.3544,6.3544,0,0,1,.6123-2.7227,7.4162,7.4162,0,0,1,1.7-2.3159,8.6533,8.6533,0,0,1,5.8823-2.2456,8.1823,8.1823,0,0,1,1.9717.2124q.85.2116,1.4961.4419t1.1391.4419a2.2979,2.2979,0,0,0,.9009.2124.893.893,0,0,0,.6289-.1592,1.9165,1.9165,0,0,0,.3232-.5835h.544v6.7183H232.31q-.408-1.2371-.8672-2.44a9.21,9.21,0,0,0-1.1728-2.1743,5.52,5.52,0,0,0-1.8023-1.5737,5.6526,5.6526,0,0,0-2.7539-.6011,6.802,6.802,0,0,0-2.397.3892,5.4927,5.4927,0,0,0-1.7509,1.0254,4.5155,4.5155,0,0,0-1.0879,1.414,3.6286,3.6286,0,0,0-.3741,1.5913,3.2472,3.2472,0,0,0,.629,2.0508,5.4858,5.4858,0,0,0,1.6489,1.397,12.3914,12.3914,0,0,0,2.3291,1.0078q1.308.4241,2.686.8838t2.686,1.0078a9.13,9.13,0,0,1,2.3287,1.397,6.6506,6.6506,0,0,1,1.6494,2.0508,6.3592,6.3592,0,0,1,.6289,2.97,8.1258,8.1258,0,0,1-.68,3.2885,8.2186,8.2186,0,0,1-1.9209,2.7227,9.3654,9.3654,0,0,1-2.958,1.8564,10.1865,10.1865,0,0,1-3.8252.69,10.3936,10.3936,0,0,1-2.0908-.2124q-1.0378-.2116-1.938-.4419-.9017-.2292-1.5981-.4419a3.9877,3.9877,0,0,0-1.0367-.2124,1.122,1.122,0,0,0-.68.1592,1.4238,1.4238,0,0,0-.3741.6543h-.5439v-7.85Z" transform="translate(-101.1886 45.1292)" fill="#020202"/>
      <path d="M246.9639,184.8579l5.8818,17.6094h.0684l5.9839-17.6094h8.5v.4951H264.27v24.1861h3.1279v.4951H256.2456v-.4951H259.34V185.353h-.0679l-8.3642,24.6812h-.544l-8.3979-24.6812h-.0679v24.1861h3.1279v.4951h-6.8v-.4951h3.1284V185.353h-3.1284v-.4951Z" transform="translate(-101.1886 45.1292)" fill="#020202"/>
      <path d="M290.2793,184.8579v6.0464h-.4419a12.8347,12.8347,0,0,0-.5781-1.5381,7.6865,7.6865,0,0,0-1.1387-1.8208,6.6993,6.6993,0,0,0-1.8872-1.5386,5.6579,5.6579,0,0,0-2.8217-.6538h-5.4063v10.9263H279.91a5.3993,5.3993,0,0,0,2.125-.3716,3.8179,3.8179,0,0,0,1.4448-1.0605,5.82,5.82,0,0,0,.9522-1.6621,13.2432,13.2432,0,0,0,.6118-2.1744h.4419v10.9966h-.4419q-.2381-1.0247-.561-1.98a5.976,5.976,0,0,0-.8672-1.68,4.0179,4.0179,0,0,0-1.3428-1.149,4.2021,4.2021,0,0,0-1.9888-.4243h-2.2783v12.7647h5.5762a6.8108,6.8108,0,0,0,5.0488-2.086,8.776,8.776,0,0,0,1.6152-2.3164,12.942,12.942,0,0,0,.9859-2.8462h.4419v7.7437H269.9473v-.4951h3.1284V185.353h-3.1284v-.4951Z" transform="translate(-101.1886 45.1292)" fill="#020202"/>
      <path d="M294.461,185.353v-.4951h3.1279q1.7344,0,3.4683-.0532t3.4677-.0527a26.0906,26.0906,0,0,1,3.23.2119,17.8376,17.8376,0,0,1,3.3662.76,14.9976,14.9976,0,0,1,3.1621,1.4673,10.5672,10.5672,0,0,1,2.6519,2.334,10.988,10.988,0,0,1,1.8359,3.3594,15.5157,15.5157,0,0,1,0,9.0874,11.1921,11.1921,0,0,1-1.8188,3.3593,10.54,10.54,0,0,1-2.6011,2.3335,14.8121,14.8121,0,0,1-3.043,1.4673,16.2631,16.2631,0,0,1-3.1279.76,21.2181,21.2181,0,0,1-2.873.2124q-1.938,0-3.8589-.0357t-3.8594-.0351H294.461v-.4951h3.1279V185.353Zm9.86,24.292a11.46,11.46,0,0,0,3.774-.5478,7.9329,7.9329,0,0,0,2.6347-1.4854,7.3673,7.3673,0,0,0,1.7-2.1391,11.11,11.11,0,0,0,.9517-2.5284,16.5465,16.5465,0,0,0,.4253-2.6518q.1017-1.3257.102-2.4927a35.889,35.889,0,0,0-.34-5.1807,10.4476,10.4476,0,0,0-1.3428-3.96,6.6028,6.6028,0,0,0-2.8223-2.5283,10.996,10.996,0,0,0-4.7768-.8843q-.68,0-1.2241.018a5.4266,5.4266,0,0,0-.8838.0884v24.1861A16.9306,16.9306,0,0,0,304.3213,209.645Z" transform="translate(-101.1886 45.1292)" fill="#020202"/>
      <path d="M333.7305,184.8579v.4951h-3.1284v24.1861h3.1284v.4951h-11.186v-.4951h3.1279V185.353h-3.1279v-.4951Z" transform="translate(-101.1886 45.1292)" fill="#020202"/>
      <path d="M356.7828,184.8579v6.0464h-.4415a13.1922,13.1922,0,0,0-.5781-1.5381,7.6961,7.6961,0,0,0-1.1406-1.8208,6.6631,6.6631,0,0,0-1.8867-1.5386,5.6539,5.6539,0,0,0-2.8223-.6538h-5.4043v10.9263h1.9024a5.3931,5.3931,0,0,0,2.125-.3716,3.8088,3.8088,0,0,0,1.4453-1.0605,5.8356,5.8356,0,0,0,.9531-1.6621,13.2939,13.2939,0,0,0,.6113-2.1744h.4414v10.9966h-.4414q-.2373-1.0247-.56-1.98a6.026,6.026,0,0,0-.8672-1.68,4.0165,4.0165,0,0,0-1.3438-1.149,4.2013,4.2013,0,0,0-1.9882-.4243h-2.2774v12.7647h5.5742a6.8175,6.8175,0,0,0,5.0508-2.086,8.7726,8.7726,0,0,0,1.6133-2.3164,12.84,12.84,0,0,0,.9863-2.8462h.4434v7.7437H336.45v-.4951h3.1275V185.353H336.45v-.4951Z" transform="translate(-101.1886 45.1292)" fill="#020202"/>
      <path d="M369.0562,184.8579,380.3785,201.69h.0683V185.353h-3.1279v-.4951h6.8v.4951h-3.1279v24.6812h-.918l-15.3-22.6655h-.0684v22.17h3.128v.4951h-6.8v-.4951h3.1279V185.353h-3.1279v-.4951Z" transform="translate(-101.1886 45.1292)" fill="#020202"/>
    </g>
    <g>
      <path d="M231.8667,382.4575l-2.4306-.0058a3.5247,3.5247,0,0,0-.3379-1.6792,3.1,3.1,0,0,0-2.9336-1.3965,1.8047,1.8047,0,0,0-1.3467.9121q-.6035,1.0539.6563,2.6294l1.1562,1.4419a7.3635,7.3635,0,0,1,1.6748,3.2573,4.3755,4.3755,0,0,1-.5908,2.9849,4.9674,4.9674,0,0,1-3.2559,2.4926,5.5642,5.5642,0,0,1-4.1894-.6665,5.4332,5.4332,0,0,1-2.582-2.9541,5.7976,5.7976,0,0,1,.2285-4.0161l2.5654.8262a4.1827,4.1827,0,0,0-.4609,2.0635,3.0508,3.0508,0,0,0,3.6445,2.4228,2.65,2.65,0,0,0,1.6865-1.3237,2.6962,2.6962,0,0,0,.3194-.8379,2.2381,2.2381,0,0,0-.0088-.86,3.4824,3.4824,0,0,0-.35-.9306,7.3821,7.3821,0,0,0-.6885-1.045l-1.1133-1.4057q-2.357-3.01-.98-5.4141a3.9371,3.9371,0,0,1,2.8438-1.9736,5.501,5.501,0,0,1,3.8388.7383A5.1892,5.1892,0,0,1,231.8667,382.4575Z" transform="translate(-101.1886 45.1292)" fill="#040505" stroke="#f9f9f9" stroke-width="0.25"/>
      <path d="M240.7144,383.895l-6.8926,15.0864L231.4546,397.9l6.8916-15.0874Z" transform="translate(-101.1886 45.1292)" fill="#040505" stroke="#f9f9f9" stroke-width="0.25"/>
      <path d="M241.15,402.1558l5.3057-15.7139,3.4287,1.1577a13.6632,13.6632,0,0,1,3.7383,1.7842,8.245,8.245,0,0,1-1.7969,14.1553,8.2389,8.2389,0,0,1-3.2988.6211,13.838,13.838,0,0,1-3.99-.86Zm3.2188-1.3955,1.11.3745a10.1713,10.1713,0,0,0,2.877.5976,5.98,5.98,0,0,0,2.3711-.4585,5.57,5.57,0,0,0,3.2266-3.5468,5.66,5.66,0,0,0-.3838-4.8018,7.3845,7.3845,0,0,0-4.2891-3.0459l-1.1113-.376Z" transform="translate(-101.1886 45.1292)" fill="#040505" stroke="#f9f9f9" stroke-width="0.25"/>
      <path d="M273.0953,396.1309,266.32,394.748l-.7969,3.9048,6.5791,1.3428-.4707,2.3047-6.5791-1.3423-1.1074,5.4316,6.7754,1.3824-.47,2.3047-9.3271-1.9024,3.3154-16.2519,9.3272,1.9038Z" transform="translate(-101.1886 45.1292)" fill="#040505" stroke="#f9f9f9" stroke-width="0.25"/>
      <path d="M277.7349,411.2568l1.2041-17.6733,11.69,13.4805.7832-11.5005,2.5967.1772-1.1953,17.5552-11.6934-13.4482-.789,11.5859Z" transform="translate(-101.1886 45.1292)" fill="#040505" stroke="#f9f9f9" stroke-width="0.25"/>
      <path d="M313.8941,396.67l-2.9541.4141,1.0918-2.5181,4.1152-.5762,2.2988,16.4268-2.5781.36Z" transform="translate(-101.1886 45.1292)" fill="#040505" stroke="#f9f9f9" stroke-width="0.25"/>
      <path d="M330.8345,408.5928l-2.1846-.8584,2.6846-6.2437q-.3149.1245-.5371.2012-.2226.0783-.3633.1128a4.9355,4.9355,0,0,1-3.8847-.6089,5.0108,5.0108,0,0,1-2.3672-3.1938,5.2281,5.2281,0,0,1,.6855-4.2032,5.6667,5.6667,0,0,1,3.5469-2.5732,5.8523,5.8523,0,0,1,4.3691.5659,4.972,4.972,0,0,1,2.6094,3.2437,7.0908,7.0908,0,0,1-.6309,4.4663Zm-4.2373-11.3848a3.0065,3.0065,0,0,0,1.4707,1.958,3.3585,3.3585,0,0,0,4.4776-1.1128,3.0527,3.0527,0,0,0-1.0821-4.3139,3.3578,3.3578,0,0,0-4.4648,1.12A2.9246,2.9246,0,0,0,326.5972,397.208Z" transform="translate(-101.1886 45.1292)" fill="#040505" stroke="#f9f9f9" stroke-width="0.25"/>
      <path d="M348.2691,403.3281l-2.2715-.5893,1.9141-6.521c-.1993.1059-.3682.1943-.51.2636-.14.07-.2559.1211-.3467.1568a4.9367,4.9367,0,0,1-3.93-.1387,5.01,5.01,0,0,1-2.7334-2.8848,5.2268,5.2268,0,0,1,.1739-4.2558,5.6629,5.6629,0,0,1,3.2119-2.981,5.8435,5.8435,0,0,1,4.4052.0362,4.9761,4.9761,0,0,1,2.9815,2.9057,7.1023,7.1023,0,0,1-.0889,4.51Zm-5.5752-10.7925a3.0007,3.0007,0,0,0,1.6943,1.7652,3.3551,3.3551,0,0,0,4.3115-1.6426,3.0541,3.0541,0,0,0-1.5927-4.1523,3.2124,3.2124,0,0,0-2.4854-.0235,3.18,3.18,0,0,0-1.8115,1.6724A2.9284,2.9284,0,0,0,342.6939,392.5356Z" transform="translate(-101.1886 45.1292)" fill="#040505" stroke="#f9f9f9" stroke-width="0.25"/>
      <path d="M361.46,381.0981l-7.542,3.9493-1.0859-2.0757,11.3916-5.9639-1.6826,20.2451-2.4141-.1543Z" transform="translate(-101.1886 45.1292)" fill="#040505" stroke="#f9f9f9" stroke-width="0.25"/>
    </g>
    <g>
      <path d="M225.6888,416.4029a2.5882,2.5882,0,0,1,1.5818-1.3907,2.9228,2.9228,0,0,1,3.6725,1.7075,2.6824,2.6824,0,0,1-1.65,3.55,3.0054,3.0054,0,0,1-3.6913-1.7151A2.6409,2.6409,0,0,1,225.6888,416.4029Z" transform="translate(-101.1886 45.1292)" fill="#060707" stroke="#f9f9f9" stroke-width="0.25"/>
      <path d="M296.4493,432.8526a2.5845,2.5845,0,0,1,.8222-1.9388,2.9282,2.9282,0,0,1,4.051-.05,2.6049,2.6049,0,0,1,.871,1.9379,2.6374,2.6374,0,0,1-.8219,1.9779,3.0079,3.0079,0,0,1-4.0718.0491A2.6377,2.6377,0,0,1,296.4493,432.8526Z" transform="translate(-101.1886 45.1292)" fill="#060707" stroke="#f9f9f9" stroke-width="0.25"/>
      <path d="M367.3489,417.2556a2.5819,2.5819,0,0,1-.09-2.1041,2.925,2.925,0,0,1,3.636-1.7859A2.6864,2.6864,0,0,1,372.62,416.88a3.001,3.001,0,0,1-3.6541,1.7951A2.6326,2.6326,0,0,1,367.3489,417.2556Z" transform="translate(-101.1886 45.1292)" fill="#060707" stroke="#f9f9f9" stroke-width="0.25"/>
      <path d="M424.7431,372.4017a2.5889,2.5889,0,0,1-1.0091-1.8479,2.9261,2.9261,0,0,1,2.4743-3.2075,2.683,2.683,0,0,1,3.0994,2.3918,3.0044,3.0044,0,0,1-2.487,3.2223A2.64,2.64,0,0,1,424.7431,372.4017Z" transform="translate(-101.1886 45.1292)" fill="#060707" stroke="#f9f9f9" stroke-width="0.25"/>
      <path d="M457.0335,307.5191a2.5857,2.5857,0,0,1-1.6964-1.2494,2.93,2.93,0,0,1,.8876-3.9527,2.6868,2.6868,0,0,1,3.8224.8591,3.01,3.01,0,0,1-.8931,3.9717A2.6358,2.6358,0,0,1,457.0335,307.5191Z" transform="translate(-101.1886 45.1292)" fill="#060707" stroke="#f9f9f9" stroke-width="0.25"/>
      <path d="M458.1888,234.9219a2.5908,2.5908,0,0,1-2.0672-.3985,2.9274,2.9274,0,0,1-.896-3.9514,2.6882,2.6882,0,0,1,3.8179-.8674,3.0075,3.0075,0,0,1,.9018,3.9717A2.6475,2.6475,0,0,1,458.1888,234.9219Z" transform="translate(-101.1886 45.1292)" fill="#060707" stroke="#f9f9f9" stroke-width="0.25"/>
      <path d="M427.9622,168.8327a2.5871,2.5871,0,0,1-2.0375.5345,2.9278,2.9278,0,0,1-2.5182-3.1735,2.6844,2.6844,0,0,1,3.0675-2.4327,2.8094,2.8094,0,0,1,1.8825,1.091,2.8379,2.8379,0,0,1,.6491,2.0972A2.6468,2.6468,0,0,1,427.9622,168.8327Z" transform="translate(-101.1886 45.1292)" fill="#060707" stroke="#f9f9f9" stroke-width="0.25"/>
      <path d="M372.2114,122.31a2.5825,2.5825,0,0,1-1.6084,1.3572,2.9235,2.9235,0,0,1-3.637-1.7851,2.6018,2.6018,0,0,1,.0971-2.12,2.63,2.63,0,0,1,1.6259-1.394,3.0056,3.0056,0,0,1,3.656,1.7937A2.636,2.636,0,0,1,372.2114,122.31Z" transform="translate(-101.1886 45.1292)" fill="#060707" stroke="#f9f9f9" stroke-width="0.25"/>
      <path d="M301.8281,104.3777a2.581,2.581,0,0,1-.8647,1.92,2.9265,2.9265,0,0,1-4.0515-.0346,2.6855,2.6855,0,0,1,.0351-3.9147,3.004,3.004,0,0,1,4.071.0339A2.6415,2.6415,0,0,1,301.8281,104.3777Z" transform="translate(-101.1886 45.1292)" fill="#060707" stroke="#f9f9f9" stroke-width="0.25"/>
      <path d="M230.59,118.4951a2.5974,2.5974,0,0,1,.0444,2.1061,2.9264,2.9264,0,0,1-3.6733,1.7095,2.6853,2.6853,0,0,1-1.65-3.5495,2.8129,2.8129,0,0,1,1.4993-1.5764,2.8447,2.8447,0,0,1,2.1921-.1422A2.6482,2.6482,0,0,1,230.59,118.4951Z" transform="translate(-101.1886 45.1292)" fill="#060707" stroke="#f9f9f9" stroke-width="0.25"/>
      <path d="M172.3432,162.1117a2.5859,2.5859,0,0,1,.9493,1.88,2.9267,2.9267,0,0,1-2.5781,3.1259,2.6869,2.6869,0,0,1-3.0207-2.4911,2.8137,2.8137,0,0,1,.6753-2.0685,2.8426,2.8426,0,0,1,1.9152-1.0732A2.6455,2.6455,0,0,1,172.3432,162.1117Z" transform="translate(-101.1886 45.1292)" fill="#060707" stroke="#f9f9f9" stroke-width="0.25"/>
      <path d="M138.636,226.3358a2.5872,2.5872,0,0,1,1.67,1.2845,2.9258,2.9258,0,0,1-.9718,3.933,2.6049,2.6049,0,0,1-2.0937.3558,2.6338,2.6338,0,0,1-1.7075-1.2939,3.0025,3.0025,0,0,1,.976-3.9528A2.64,2.64,0,0,1,138.636,226.3358Z" transform="translate(-101.1886 45.1292)" fill="#060707" stroke="#f9f9f9" stroke-width="0.25"/>
      <path d="M135.9752,298.9287a2.5843,2.5843,0,0,1,2.0593.4414,2.9269,2.9269,0,0,1,.8159,3.967,2.6056,2.6056,0,0,1-1.7387,1.2229,2.6331,2.6331,0,0,1-2.0972-.4337,2.81,2.81,0,0,1-1.186-1.8241,2.8452,2.8452,0,0,1,.3663-2.1646A2.6439,2.6439,0,0,1,135.9752,298.9287Z" transform="translate(-101.1886 45.1292)" fill="#060707" stroke="#f9f9f9" stroke-width="0.25"/>
      <path d="M164.804,365.5943a2.5789,2.5789,0,0,1,2.046-.4919,2.927,2.927,0,0,1,2.452,3.2254,2.6043,2.6043,0,0,1-1.039,1.8528,2.6316,2.6316,0,0,1-2.0788.5161,3.004,3.004,0,0,1-2.4627-3.2427A2.6379,2.6379,0,0,1,164.804,365.5943Z" transform="translate(-101.1886 45.1292)" fill="#060707" stroke="#f9f9f9" stroke-width="0.25"/>
    </g>
    <g>
      <rect x="146.8378" y="279.2247" width="152.6381" height="8.3267" fill="none" stroke="#020202" stroke-miterlimit="10" stroke-width="2"/>
      <rect x="141.5237" y="284.3577" width="5.314" height="39.018" fill="none" stroke="#020202" stroke-miterlimit="10" stroke-width="2"/>
      <path d="M242.7123,239.2284H171.6831s24.0546,47.02,71.0292,39.018Z" transform="translate(-101.1886 45.1292)" fill="none" stroke="#020202" stroke-miterlimit="10" stroke-width="2"/>
      <path d="M327.1814,330.3712" transform="translate(-101.1886 45.1292)" fill="none" stroke="#020202" stroke-miterlimit="10" stroke-width="2"/>
      <path d="M327.1814,342.5521" transform="translate(-101.1886 45.1292)" fill="none" stroke="#020202" stroke-miterlimit="10" stroke-width="2"/>
      <path d="M261.3937,342.5521" transform="translate(-101.1886 45.1292)" fill="none" stroke="#020202" stroke-miterlimit="10" stroke-width="2"/>
      <path d="M261.1636,330.63" transform="translate(-101.1886 45.1292)" fill="none" stroke="#020202" stroke-miterlimit="10" stroke-width="2"/>
      <path d="M248.0264,278.2464s19.348-3.3369,20.9581,9.3623-3.68,20.9925-32.4338,28.5084L227.12,331.2363" transform="translate(-101.1886 45.1292)" fill="none" stroke="#020202" stroke-miterlimit="10" stroke-width="2"/>
      <rect x="126.0951" y="376.3655" width="32.9598" height="12.256" fill="none" stroke="#020202" stroke-miterlimit="10" stroke-width="2"/>
      <rect x="225.352" y="376.3655" width="32.8456" height="12.256" fill="none" stroke="#020202" stroke-miterlimit="10" stroke-width="2"/>
      <path d="M260.2435,331.2363s32.86-45.26,66.2971,0v12.0289a.166.166,0,0,1-.2439.1654c-2.7151-1.7159-27.9033-16.4944-65.8.0472a.1886.1886,0,0,1-.2534-.1926Z" transform="translate(-101.1886 45.1292)" fill="none" stroke="#020202" stroke-miterlimit="10" stroke-width="2"/>
      <path d="M264.9732,302.9583s-1.2672,19.7364-37.8536,28.278" transform="translate(-101.1886 45.1292)" fill="none" stroke="#020202" stroke-miterlimit="10" stroke-width="2"/>
      <path d="M326.5406,302.648s2.1259,21.6962,32.7153,28.4987a.2443.2443,0,0,0,.2521-.3395l-4.8872-13.4056-16.4765-6.281c-28.5733-13.5655-9.2986-35.1414-9.2986-35.1414,19.6969-19.2019,61.4395-19.2037,61.4395-19.2037,9.1392-.2021,6.4655-14.3533,6.4655-14.3533" transform="translate(-101.1886 45.1292)" fill="none" stroke="#020202" stroke-miterlimit="10" stroke-width="2"/>
      <path d="M171.6831,239.2284s18.5135,7.5549,39.522,7.5549c0,0,21.253-3.7774,31.5072-7.5549" transform="translate(-101.1886 45.1292)" fill="none" stroke="#020202" stroke-miterlimit="10" stroke-width="2"/>
    </g>
    <g>
      <path d="M836.4956,376.7964l-2.43-.0337a3.5355,3.5355,0,0,0-.3189-1.6836,3.1005,3.1005,0,0,0-2.918-1.43,1.8036,1.8036,0,0,0-1.3564.8965q-.6167,1.0467.6255,2.6367l1.14,1.4556a7.3522,7.3522,0,0,1,1.6372,3.2759,4.3742,4.3742,0,0,1-.625,2.9785,4.9684,4.9684,0,0,1-3.2841,2.4546,5.5568,5.5568,0,0,1-4.1807-.7154,5.4291,5.4291,0,0,1-2.5488-2.9824,5.7991,5.7991,0,0,1,.2744-4.0132l2.5561.855a4.1889,4.1889,0,0,0-.4848,2.0586,3.0509,3.0509,0,0,0,3.6172,2.4639A2.6517,2.6517,0,0,0,829.9,383.709a2.7,2.7,0,0,0,.3291-.834,2.2229,2.2229,0,0,0,.001-.86,3.4858,3.4858,0,0,0-.3384-.9345,7.6,7.6,0,0,0-.6767-1.0533l-1.0972-1.4179q-2.3225-3.0353-.9175-5.4253a3.9345,3.9345,0,0,1,2.8662-1.94,5.4968,5.4968,0,0,1,3.8306.7827A5.19,5.19,0,0,1,836.4956,376.7964Z" transform="translate(-101.1886 45.1292)" fill="#f9f9f9" stroke="#f9f9f9" stroke-width="0.25"/>
      <path d="M845.3257,378.334,838.26,393.3389l-2.3545-1.1075,7.065-15.0068Z" transform="translate(-101.1886 45.1292)" fill="#f9f9f9" stroke="#f9f9f9" stroke-width="0.25"/>
      <path d="M845.5513,396.5981l5.4858-15.6518,3.4156,1.1973a13.6428,13.6428,0,0,1,3.7163,1.8256,8.2439,8.2439,0,0,1-1.9575,14.1343,8.2191,8.2191,0,0,1-3.3067.583,13.7514,13.7514,0,0,1-3.98-.9062Zm3.2349-1.3584,1.1064.3873a10.1462,10.1462,0,0,0,2.8692.63,5.9654,5.9654,0,0,0,2.3764-.43,5.5676,5.5676,0,0,0,3.2666-3.51,5.6591,5.6591,0,0,0-.3281-4.8057,7.3864,7.3864,0,0,0-4.2539-3.0957l-1.1074-.3881Z" transform="translate(-101.1886 45.1292)" fill="#f9f9f9" stroke="#f9f9f9" stroke-width="0.25"/>
      <path d="M877.5645,390.94l-6.76-1.46-.8418,3.8945,6.5635,1.4185-.4971,2.2993-6.563-1.4175-1.17,5.418,6.76,1.4594-.4961,2.3-9.3047-2.01,3.502-16.2119,9.3037,2.01Z" transform="translate(-101.1886 45.1292)" fill="#f9f9f9" stroke="#f9f9f9" stroke-width="0.25"/>
      <path d="M882.03,406.1177l1.4068-17.6582,11.5356,13.6137.9146-11.4912,2.5947.2071-1.397,17.5405-11.5376-13.5811-.9219,11.5762Z" transform="translate(-101.1886 45.1292)" fill="#f9f9f9" stroke="#f9f9f9" stroke-width="0.25"/>
      <path d="M918.3545,391.9482l-2.958.3794,1.12-2.5048,4.1221-.5289,2.1109,16.4512-2.5826.3311Z" transform="translate(-101.1886 45.1292)" fill="#f9f9f9" stroke="#f9f9f9" stroke-width="0.25"/>
      <path d="M935.1578,404.064l-2.1748-.8838,2.7558-6.2124c-.2109.08-.3906.1445-.5391.1948s-.2714.0864-.3652.1089a4.9351,4.9351,0,0,1-3.8769-.6533,5.0128,5.0128,0,0,1-2.33-3.22,5.227,5.227,0,0,1,.7324-4.1953,5.6676,5.6676,0,0,1,3.5772-2.5322,5.8419,5.8419,0,0,1,4.3613.6152,4.9733,4.9733,0,0,1,2.5732,3.273,7.0994,7.0994,0,0,1-.6816,4.459Zm-4.1065-11.4327a3.0085,3.0085,0,0,0,1.4473,1.9742,3.3593,3.3593,0,0,0,4.4912-1.0616,3.0531,3.0531,0,0,0-1.0332-4.3251,3.3549,3.3549,0,0,0-4.4766,1.0678A2.9279,2.9279,0,0,0,931.0513,392.6313Z" transform="translate(-101.1886 45.1292)" fill="#f9f9f9" stroke="#f9f9f9" stroke-width="0.25"/>
      <path d="M952.6519,398.999l-2.2647-.6157,1.9883-6.4985c-.1992.1045-.37.19-.5117.2583s-.2578.1181-.3486.1513a4.9381,4.9381,0,0,1-3.9278-.1816,5.0178,5.0178,0,0,1-2.7011-2.918,5.2283,5.2283,0,0,1,.2226-4.2529A5.6577,5.6577,0,0,1,948.356,382a5.8362,5.8362,0,0,1,4.4043.0859,4.9733,4.9733,0,0,1,2.9473,2.94,7.0965,7.0965,0,0,1-.1407,4.5093Zm-5.4512-10.8564a3.0009,3.0009,0,0,0,1.6739,1.7851,3.3565,3.3565,0,0,0,4.33-1.5923,3.0535,3.0535,0,0,0-1.5439-4.17,3.3548,3.3548,0,0,0-4.3164,1.5987A2.9273,2.9273,0,0,0,947.2007,388.1426Z" transform="translate(-101.1886 45.1292)" fill="#f9f9f9" stroke="#f9f9f9" stroke-width="0.25"/>
      <path d="M966.0962,376.9219l-7.5869,3.8618-1.0625-2.0879,11.46-5.833-1.9151,20.2251-2.413-.1826Z" transform="translate(-101.1886 45.1292)" fill="#f9f9f9" stroke="#f9f9f9" stroke-width="0.25"/>
    </g>
    <g>
      <path d="M819.3047,171.4258v-26.27h1.9624v15.9467l15.9307-15.9467h2.27l-11.3516,11.5068,11.9288,14.7632h-2.232L826.8467,157.81l-5.58,5.5132v8.103Z" transform="translate(-101.1886 45.1292)" fill="#f9f9f9"/>
      <path d="M848.0494,145.1558l10.39,23.9018,10.3892-23.9018h2.0781l-11.544,26.27h-1.8085l-11.5826-26.27Z" transform="translate(-101.1886 45.1292)" fill="#f9f9f9"/>
      <path d="M880.3335,171.4258v-26.27h1.9624v26.27Z" transform="translate(-101.1886 45.1292)" fill="#f9f9f9"/>
      <path d="M896.6485,148.708v22.7178h-1.9624v-26.27h1.501l19.1625,23.125v-23.125h1.9629v26.27h-1.8086Z" transform="translate(-101.1886 45.1292)" fill="#f9f9f9"/>
      <path d="M929.6636,171.4258v-26.27h9.082a14.46,14.46,0,0,1,5.6758,1.0361,11.4115,11.4115,0,0,1,4.0586,2.812,11.6261,11.6261,0,0,1,2.4238,4.1626,15.7479,15.7479,0,0,1,.8086,5.0874,15.391,15.391,0,0,1-.9043,5.42,11.3433,11.3433,0,0,1-6.6953,6.8081,14.59,14.59,0,0,1-5.3672.9434Zm20.086-13.1719a13.7893,13.7893,0,0,0-.7305-4.57,10.2177,10.2177,0,0,0-2.1348-3.6074,9.7426,9.7426,0,0,0-3.4453-2.3677,12.1017,12.1017,0,0,0-4.6934-.8511h-7.1191v22.8657h7.1191a12.1342,12.1342,0,0,0,4.752-.8691,9.4866,9.4866,0,0,0,3.4434-2.4238,10.48,10.48,0,0,0,2.0976-3.6446A13.97,13.97,0,0,0,949.75,158.2539Z" transform="translate(-101.1886 45.1292)" fill="#f9f9f9"/>
      <path d="M980.5337,169.7236v1.7022h-18.2v-26.27H980.188v1.7021H964.2955v10.3228h13.8916v1.6279H964.2955v10.915Z" transform="translate(-101.1886 45.1292)" fill="#f9f9f9"/>
    </g>
    <g>
      <path d="M816.6856,196.3975q.0681.4248.2383,1.1142a10.8684,10.8684,0,0,0,.4926,1.4849,12.1106,12.1106,0,0,0,.8165,1.6264,7.6453,7.6453,0,0,0,1.2065,1.5381,7.0683,7.0683,0,0,0,1.5132,1.2378,6.3535,6.3535,0,0,0,1.394.6187,4.99,4.99,0,0,0,1.2578.2124q.5947.0183,1.105.0176a6.5548,6.5548,0,0,0,2.958-.5835,5.1759,5.1759,0,0,0,2.7544-3.2178,6.0042,6.0042,0,0,0,.272-1.6441,3.6735,3.6735,0,0,0-.5952-2.1572,4.833,4.833,0,0,0-1.5811-1.414,11.1214,11.1214,0,0,0-2.2436-.9551q-1.2583-.3882-2.5845-.7954a24.21,24.21,0,0,1-2.584-.9546,8.5245,8.5245,0,0,1-2.2436-1.4146,6.4162,6.4162,0,0,1-1.5811-2.1391,7.5048,7.5048,0,0,1-.5952-3.1826,6.3544,6.3544,0,0,1,.6123-2.7227,7.4162,7.4162,0,0,1,1.7-2.3159,8.6538,8.6538,0,0,1,5.8823-2.2456,8.1817,8.1817,0,0,1,1.9717.2124q.85.2116,1.4961.4419t1.1392.4419a2.2978,2.2978,0,0,0,.9008.2124.8935.8935,0,0,0,.6289-.1592,1.9184,1.9184,0,0,0,.3233-.5835h.5439V185.79h-.4419q-.4079-1.2372-.8672-2.44a9.2041,9.2041,0,0,0-1.1728-2.1743,5.519,5.519,0,0,0-1.8023-1.5737,5.6523,5.6523,0,0,0-2.7539-.6011,6.8034,6.8034,0,0,0-2.3969.3891,5.498,5.498,0,0,0-1.751,1.0254,4.5159,4.5159,0,0,0-1.0879,1.4141,3.6282,3.6282,0,0,0-.374,1.5913,3.2477,3.2477,0,0,0,.6289,2.0508,5.4858,5.4858,0,0,0,1.6489,1.397,12.4008,12.4008,0,0,0,2.3291,1.0078q1.3081.424,2.686.8838t2.6861,1.0078a9.1269,9.1269,0,0,1,2.3286,1.397,6.65,6.65,0,0,1,1.6494,2.0507,6.3582,6.3582,0,0,1,.6289,2.97,8.1243,8.1243,0,0,1-.68,3.2886,8.22,8.22,0,0,1-1.9209,2.7227,9.3643,9.3643,0,0,1-2.958,1.8564,10.1865,10.1865,0,0,1-3.8252.69,10.3936,10.3936,0,0,1-2.0908-.2124q-1.0379-.2117-1.938-.4419t-1.5981-.4419a3.9879,3.9879,0,0,0-1.0366-.2124,1.1221,1.1221,0,0,0-.68.1592,1.4239,1.4239,0,0,0-.374.6543h-.544v-7.85Z" transform="translate(-101.1886 45.1292)" fill="#f9f9f9"/>
      <path d="M846.0957,179.0713l5.8819,17.6094h.0683l5.9839-17.6094h8.5v.4951h-3.1279v24.186H866.53v.4952H855.3775v-.4952h3.0942v-24.186h-.0679L850.04,204.2476h-.544l-8.3979-24.6812H841.03v24.186h3.128v.4952h-6.8v-.4952h3.1284v-24.186h-3.1284v-.4951Z" transform="translate(-101.1886 45.1292)" fill="#f9f9f9"/>
      <path d="M889.4112,179.0713v6.0464h-.4419a12.87,12.87,0,0,0-.5781-1.5381,7.6877,7.6877,0,0,0-1.1387-1.8208,6.6973,6.6973,0,0,0-1.8872-1.5386,5.6583,5.6583,0,0,0-2.8218-.6538h-5.4063v10.9263h1.9043a5.3993,5.3993,0,0,0,2.125-.3716,3.8185,3.8185,0,0,0,1.4449-1.0606,5.8193,5.8193,0,0,0,.9521-1.6621,13.2391,13.2391,0,0,0,.6118-2.1743h.4419v10.9966h-.4419q-.238-1.0246-.561-1.98a5.974,5.974,0,0,0-.8672-1.68,4.0178,4.0178,0,0,0-1.3428-1.1489,4.202,4.202,0,0,0-1.9887-.4243h-2.2784v12.7646h5.5762a6.81,6.81,0,0,0,5.0488-2.0859,8.78,8.78,0,0,0,1.6153-2.3164,12.9367,12.9367,0,0,0,.9858-2.8462h.4419v7.7437H869.0791v-.4952h3.1285v-24.186h-3.1285v-.4951Z" transform="translate(-101.1886 45.1292)" fill="#f9f9f9"/>
      <path d="M893.5928,179.5664v-.4951h3.1279q1.7345,0,3.4683-.0532t3.4678-.0528a26.0919,26.0919,0,0,1,3.23.2119,17.84,17.84,0,0,1,3.3662.76,15.0023,15.0023,0,0,1,3.1621,1.4673,10.5685,10.5685,0,0,1,2.6518,2.334,10.9877,10.9877,0,0,1,1.836,3.3593,15.5179,15.5179,0,0,1,0,9.0874,11.1916,11.1916,0,0,1-1.8189,3.3594,10.5374,10.5374,0,0,1-2.601,2.3335,14.8146,14.8146,0,0,1-3.043,1.4673,16.2723,16.2723,0,0,1-3.1279.76,21.2206,21.2206,0,0,1-2.8731.2124q-1.938,0-3.8589-.0357t-3.8594-.0351h-3.1279v-.4952h3.1279v-24.186Zm9.86,24.292a11.4569,11.4569,0,0,0,3.7739-.5479,7.9315,7.9315,0,0,0,2.6348-1.4853,7.37,7.37,0,0,0,1.7-2.1392,11.1075,11.1075,0,0,0,.9516-2.5283,16.5483,16.5483,0,0,0,.4253-2.6518q.1019-1.3257.1021-2.4927a35.8881,35.8881,0,0,0-.34-5.1807,10.4475,10.4475,0,0,0-1.3427-3.96,6.6048,6.6048,0,0,0-2.8223-2.5284,10.9981,10.9981,0,0,0-4.7769-.8842q-.68,0-1.2241.018a5.4043,5.4043,0,0,0-.8838.0884v24.186A16.9327,16.9327,0,0,0,903.4532,203.8584Z" transform="translate(-101.1886 45.1292)" fill="#f9f9f9"/>
      <path d="M932.8619,179.0713v.4951h-3.128v24.186h3.128v.4952H921.6763v-.4952h3.1279v-24.186h-3.1279v-.4951Z" transform="translate(-101.1886 45.1292)" fill="#f9f9f9"/>
      <path d="M955.9146,179.0713v6.0464h-.4414a13.2105,13.2105,0,0,0-.5781-1.5381,7.6978,7.6978,0,0,0-1.1407-1.8208,6.66,6.66,0,0,0-1.8867-1.5386,5.6533,5.6533,0,0,0-2.8222-.6538h-5.4043v10.9263h1.9023a5.3928,5.3928,0,0,0,2.125-.3716,3.8091,3.8091,0,0,0,1.4453-1.0606,5.83,5.83,0,0,0,.9531-1.6621,13.28,13.28,0,0,0,.6114-2.1743h.4414v10.9966h-.4414q-.2373-1.0246-.5606-1.98a6.024,6.024,0,0,0-.8672-1.68,4.017,4.017,0,0,0-1.3437-1.1489,4.2014,4.2014,0,0,0-1.9883-.4243h-2.2773v12.7646h5.5742a6.8173,6.8173,0,0,0,5.0508-2.0859,8.7739,8.7739,0,0,0,1.6132-2.3164,12.84,12.84,0,0,0,.9864-2.8462h.4433v7.7437H935.5816v-.4952H938.71v-24.186h-3.1279v-.4951Z" transform="translate(-101.1886 45.1292)" fill="#f9f9f9"/>
      <path d="M968.188,179.0713,979.51,195.9028h.0684V179.5664h-3.128v-.4951h6.8v.4951h-3.1279v24.6812h-.918l-15.3-22.6656h-.0683v22.17h3.1279v.4952h-6.8v-.4952h3.1279v-24.186h-3.1279v-.4951Z" transform="translate(-101.1886 45.1292)" fill="#f9f9f9"/>
    </g>
  </g>
</svg>
